<?xml version="1.0" standalone="no"?>
<!DOCTYPE svg PUBLIC "-//W3C//DTD SVG 1.1//EN" "http://www.w3.org/Graphics/SVG/1.1/DTD/svg11.dtd" >
<svg xmlns="http://www.w3.org/2000/svg">
<metadata>Generated by IcoMoon</metadata>
<defs>
<font id="icomoon" horiz-adv-x="1024">
<font-face units-per-em="1024" ascent="960" descent="-64" />
<missing-glyph horiz-adv-x="1024" />
<glyph unicode="&#x20;" horiz-adv-x="512" d="" />
<glyph unicode="&#xe900;" d="M992 480c0-265.097-214.903-480-480-480s-480 214.903-480 480c0 265.097 214.903 480 480 480s480-214.903 480-480z" />
<glyph unicode="&#xe901;" d="M992 480c0-265.097-214.903-480-480-480s-480 214.903-480 480c0 265.097 214.903 480 480 480s480-214.903 480-480z" />
<glyph unicode="&#xe902;" d="M992 480c0-265.097-214.903-480-480-480s-480 214.903-480 480c0 265.097 214.903 480 480 480s480-214.903 480-480z" />
<glyph unicode="&#xe903;" d="M976 480c0-256.26-207.74-464-464-464s-464 207.74-464 464c0 256.26 207.74 464 464 464s464-207.74 464-464z" />
<glyph unicode="&#xe904;" d="M510.080 832c-193.344-0.032-350.080-156.832-350.080-350.24 0.032-193.376 156.832-350.112 350.24-350.080 193.376 0.032 350.112 156.832 350.080 350.208-0.037 193.369-156.802 350.112-350.176 350.112-0.011 0-0.023 0-0.034 0h0.002zM367.904 678.592c0.053 1.956 1.651 3.521 3.615 3.521 0.023 0 0.046 0 0.069-0.001h145.853c1.138 0.023 2.479 0.036 3.824 0.036 30.809 0 60.029-6.805 86.238-18.995l-1.262 0.527c5.312-2.56 10.496-5.44 15.488-8.576l-94.944-54.336h-49.536c-1.97-0.036-3.553-1.641-3.553-3.615 0-0.023 0-0.045 0.001-0.068v0.003-27.328l-105.792-61.216v170.048zM328.64 371.2l-63.424 64.064 208.864 120.48v-78.080c0.053-1.956 1.651-3.521 3.615-3.521 0.023 0 0.046 0 0.069 0.001h29.789l-178.912-102.944zM641.376 430.752c-30.592-25.6-72.64-38.4-126.080-38.4h-38.080c-1.972-0.018-3.566-1.612-3.584-3.582v-78.85l-105.792-60.992v130.72l164.32 94.56c14.080 0.416 27.52 5.728 38.080 15.040 3.641 3.629 6.734 7.804 9.146 12.393l0.134 0.279 104.992 60.768c1.649-8.625 2.593-18.546 2.593-28.687 0-0.175 0-0.349-0.001-0.524v0.027c0.128-42.912-15.104-77.184-45.728-102.752zM585.056 519.296c0.667 4.080 1.061 8.799 1.088 13.605v0.027c0.056 1.055 0.088 2.29 0.088 3.533 0 17.394-6.263 33.325-16.656 45.662l0.088-0.107c-6.323 7.001-14.407 12.295-23.558 15.193l-0.378 0.103 145.888 84.224 64-64.064-170.56-98.176z" />
<glyph unicode="&#xe905;" d="M992 480c0-265.097-214.903-480-480-480s-480 214.903-480 480c0 265.097 214.903 480 480 480s480-214.903 480-480z" />
<glyph unicode="&#xe906;" d="M992 480c0-265.097-214.903-480-480-480s-480 214.903-480 480c0 265.097 214.903 480 480 480s480-214.903 480-480z" />
<glyph unicode="&#xe907;" d="M992 480c0-265.097-214.903-480-480-480s-480 214.903-480 480c0 265.097 214.903 480 480 480s480-214.903 480-480z" />
<glyph unicode="&#xe908;" d="M976 480c0-256.26-207.74-464-464-464s-464 207.74-464 464c0 256.26 207.74 464 464 464s464-207.74 464-464z" />
<glyph unicode="&#xe909;" d="M512 119.744c-198.976 0-360.256 161.28-360.256 360.256s161.28 360.256 360.256 360.256c198.976 0 360.256-161.28 360.256-360.256s-161.28-360.256-360.256-360.256zM512 140.928c187.264 0 339.072 151.808 339.072 339.072s-151.808 339.072-339.072 339.072-339.072-151.808-339.072-339.072 151.808-339.072 339.072-339.072z" />
<glyph unicode="&#xe90a;" d="M450.88 219.776c7.936 3.264 38.976 27.2 68.96 52.96 38.555 32.896 73.473 65.432 106.932 99.408l0.204 0.208c32.832 32.832 45.024 46.944 47.040 54.24 7.104 25.632-70.56 307.392-86.368 313.44-9.632 3.712-95.776-67.936-172.064-142.944-44.736-43.968-57.12-58.592-58.080-68.16-0.64-7.392 1.92-25.92 6.688-47.872 18.976-87.104 53.504-207.456 70.976-246.976 7.328-16.768 8.16-17.504 15.68-14.304z" />
<glyph unicode="&#xe90b;" d="M992 480c0-265.097-214.903-480-480-480s-480 214.903-480 480c0 265.097 214.903 480 480 480s480-214.903 480-480z" />
<glyph unicode="&#xe90c;" d="M992 480c0-265.097-214.903-480-480-480s-480 214.903-480 480c0 265.097 214.903 480 480 480s480-214.903 480-480z" />
<glyph unicode="&#xe90d;" d="M992 480c0-265.097-214.903-480-480-480s-480 214.903-480 480c0 265.097 214.903 480 480 480s480-214.903 480-480z" />
<glyph unicode="&#xe90e;" d="M976 480c0-256.26-207.74-464-464-464s-464 207.74-464 464c0 256.26 207.74 464 464 464s464-207.74 464-464z" />
<glyph unicode="&#xe90f;" d="M490.56 225.28v-42.56h21.44v63.68h-42.56v-21.12h21.12zM277.12 458.88h-21.12v-106.24h21.12v42.56h21.44v42.56h-21.44v21.12zM533.44 331.52h21.12v-63.68h-21.12v63.68zM512 267.84h21.44v-21.44h-21.44v21.44zM298.56 288.96h64v-63.68h-64v63.68zM256 501.44h21.44v-21.12h-21.44v21.12zM384 544h21.44v-21.44h-21.44v21.44zM512 565.44h21.44v-42.56h-21.44v42.56zM234.56 629.12h64v-63.68h-64v63.68zM426.56 225.28h21.44v-42.56h-21.44v42.56zM448 565.44h-21.12v-42.56h21.12v21.12h21.44v42.56h-21.44v-21.12zM469.44 607.68h21.12v-21.12h-21.12v21.12zM469.44 544h21.12v-21.12h-21.12v21.12zM362.56 501.44h64v-21.12h-64v21.12z" />
<glyph unicode="&#xe910;" d="M448 586.56v21.12h21.12v21.44h-21.12v42.24h-64v-21.12h42.56v-21.12h-21.44v-21.12h-21.12v-21.12h-21.12v20.8h-21.76v21.12h21.44v-20.8h21.44v21.12h-21.12v42.24h-170.88v-148.8h170.88v21.44h21.12v42.56h21.44v-21.12h21.44v21.12h21.12zM320 544h-106.56v106.24h106.56v-106.24zM341.12 544v42.56h21.44v-42.56h-21.44zM426.56 608v20.8h21.44v-20.8h-21.44zM597.44 374.080v21.12h-42.88v42.56h-21.12v-21.12h-21.12v21.12h21.12v64h-42.56v-21.44h-21.76v-42.56h-21.12v-21.12h21.44v21.12h21.12v-63.68h-42.56v21.12h-21.44v42.56h-21.12v21.12h-42.88v21.12h-21.44v21.12h-42.56v-21.12h-21.44v-21.12h21.44v-21.12h21.44v21.12h21.44v-21.12h-21.44v-21.12h21.44v-21.12h21.12v21.12h21.44v21.12h21.12v-21.12h-21.12v-21.12h-21.12v-42.56h42.56v-21.44h-42.88v21.12h-21.44v-21.12h-42.56v21.12h-21.12v-21.12h-21.44v-148.8h149.44v127.68h21.12v-64h42.88v21.12h21.44v42.88h-21.44v21.12h-21.44v-21.12h-21.12v42.56h64v-21.12h21.44v42.24h42.24v-21.44h21.44v21.44h21.44zM384 204.16h-106.56v106.24h106.56v-106.24zM405.44 374.080h-21.44v21.12h21.44v-21.12zM448 288.96h21.44v-21.12h-21.44v21.12zM597.44 671.36h21.12v-42.24h-21.12v42.24zM554.56 671.36h-21.12v-63.68h-21.44v-21.12h21.44v-21.12h21.12v-42.56h21.44v42.56h21.44v-42.88h21.12v21.44h21.44v42.56h-42.56v42.56h-42.88v42.24z" />
<glyph unicode="&#xe911;" d="M746.56 437.76h-42.56v-21.12h-21.44v-21.44h-21.12v63.68h21.12v21.44h-21.12v-21.12h-21.44v-21.44h-21.44v42.56h-21.12v-42.56h-21.44v-21.44l21.44 0.32h21.12v-42.56h64v-21.44h-64v-21.12h-21.12v-21.12h-21.44v-21.44h21.44v-21.12h-21.44v-21.44h21.44v-21.12h21.12v-21.12h-21.12v-21.44h170.56v127.68h-21.44v-106.24h-106.56v106.24h64v84.8h21.44v-21.12h42.56v42.24h-21.12v21.44h21.12v63.68h-21.44z" />
<glyph unicode="&#xe912;" d="M576 352.64h21.44v-21.12h-21.44v21.12zM682.56 458.88h21.44v-21.12h-21.44v21.12zM725.44 352.64h42.56v-21.44h-42.56v21.44zM725.44 628.8h64v-63.68h-64v63.68zM640 544h21.44v-21.44h-21.44v21.44zM554.56 501.44h21.44v-21.12h-21.44v21.12zM704 501.44h21.44v-21.12h-21.44v21.12zM661.44 288.96h64v-63.68h-64v63.68zM640 501.44h21.44v-21.12h-21.44v21.12zM490.56 629.12h21.44v-21.44h-21.44v21.44z" />
<glyph unicode="&#xe913;" d="M640 671.36v-21.12h42.56v-21.12h-21.44v-21.12h-21.12v21.12h-21.44v-21.44h21.44v-20.8h21.44v-21.12h21.44v-42.56h149.12v148.16h-192zM810.56 544h-106.56v106.24h106.56v-106.24zM333.12 708.8c14.72-9.92 31.36-11.84 44.48-12.48 11.2-0.64 30.080-0.64 49.92-0.64 36.8 0 80-0.64 84.48-0.64 11.84-0.32 48-0.32 80-0.32 19.84 0 38.4 0.32 49.92 0.64 13.12 0.64 29.76 2.88 44.48 12.48 18.56 12.48 27.84 32.96 27.84 60.8 0 22.4-9.28 35.84-16.96 43.52-20.8 20.16-52.8 18.88-63.36 18.56h-1.28c-6.4 0-29.44-3.52-56.64-18.88-24-13.44-44.8-32.64-61.76-56.64l-1.92-4.8-1.6 2.56c-17.92 26.88-41.28 45.12-67.2 59.84-26.88 15.36-49.92 18.56-56.32 18.56h-1.28c-10.56 0.32-42.56 1.6-63.36-18.56-14.080-13.44-16.96-31.040-16.96-43.52-0.32-27.52 8.96-48 27.52-60.48zM591.68 780.48c22.72 13.12 40 15.040 41.28 15.040h2.24c18.24 0.64 31.040-2.24 37.76-8.64 4.16-4.16 6.4-9.92 6.4-18.24 0-30.4-14.4-37.12-39.040-38.4-20.8-0.96-69.12-0.64-100.48-0.32 13.76 21.76 31.36 38.72 51.84 50.56zM346.56 787.84c6.080 5.76 16.96 8.64 32.64 8.64h7.68c1.28 0 18.56-1.92 41.28-15.040 20.48-11.84 38.080-28.8 52.16-50.56-31.68-0.32-80-0.64-100.8 0.32-24.64 1.28-39.040 8-39.040 38.4 0 8.32 1.92 14.080 6.080 18.24zM554.56 225.28h-21.12v-42.56h21.44v42.56h21.12v21.12h-21.44v-21.12z" />
<glyph unicode="&#xe914;" d="M992 480c0-265.097-214.903-480-480-480s-480 214.903-480 480c0 265.097 214.903 480 480 480s480-214.903 480-480z" />
<glyph unicode="&#xe915;" d="M992 480c0-265.097-214.903-480-480-480s-480 214.903-480 480c0 265.097 214.903 480 480 480s480-214.903 480-480z" />
<glyph unicode="&#xe916;" d="M992 480c0-265.097-214.903-480-480-480s-480 214.903-480 480c0 265.097 214.903 480 480 480s480-214.903 480-480z" />
<glyph unicode="&#xe917;" d="M976 480c0-256.26-207.74-464-464-464s-464 207.74-464 464c0 256.26 207.74 464 464 464s464-207.74 464-464z" />
<glyph unicode="&#xe918;" d="M733.888 301.632l-171.2 433.024c-9.728 22.4-24 33.344-42.912 33.344h-15.136c-18.944 0-33.248-10.976-42.912-33.344l-74.464-188.672h-56.352c-16.896-0.064-30.592-14.336-30.72-32v-0.448c0.128-17.696 13.824-31.968 30.72-32.032h30.272l-71.072-179.872c-1.289-3.656-2.058-7.874-2.112-12.263v-0.025c0-10.080 2.944-17.984 8.416-24.128 5.44-6.144 13.024-9.216 22.72-9.216 6.687 0.112 12.818 2.404 17.734 6.196l-0.070-0.052c5.44 3.936 9.248 9.664 12.16 16.224l78.272 203.136h54.272c16.864 0.064 30.56 14.368 30.72 32.032v0.864c-0.16 17.696-13.856 32-30.72 32.032h-29.024l59.712 155.744 162.784-423.776c2.944-6.56 6.72-12.288 12.192-16.224 5.152-3.904 11.328-6.080 17.696-6.144 9.664 0 17.248 3.072 22.72 9.216 5.44 6.144 8.384 14.048 8.384 24.128 0.015 0.361 0.024 0.785 0.024 1.211 0 3.988-0.773 7.795-2.176 11.28l0.072-0.203z" />
<glyph unicode="&#xe919;" d="M992 480c0-265.097-214.903-480-480-480s-480 214.903-480 480c0 265.097 214.903 480 480 480s480-214.903 480-480z" />
<glyph unicode="&#xe91a;" d="M992 480c0-265.097-214.903-480-480-480s-480 214.903-480 480c0 265.097 214.903 480 480 480s480-214.903 480-480z" />
<glyph unicode="&#xe91b;" d="M992 480c0-265.097-214.903-480-480-480s-480 214.903-480 480c0 265.097 214.903 480 480 480s480-214.903 480-480z" />
<glyph unicode="&#xe91c;" d="M976 480c0-256.26-207.74-464-464-464s-464 207.74-464 464c0 256.26 207.74 464 464 464s464-207.74 464-464z" />
<glyph unicode="&#xe91d;" d="M208 656.416l304 175.584 304-175.584v-352.832l-304-175.584-304 175.584v352.832zM237.184 337.376l121.92 70.56 61.856 108.32-183.776 106.336v-285.216zM251.808 312.064l246.464-142.368v136.224l-129.216 74.016-117.248-67.84zM786.816 621.6l-182.144-105.376 61.824-108.224 120.32-69.632v283.232zM773.056 647.456l-245.6 141.856v-137.888l62.72-109.792 182.88 105.824zM579.552 501.696l-37.504-21.696 74.4-43.040-36.896 64.736zM565.056 527.104l-37.6 65.92v-87.68l37.6 21.76zM409.408 437.024l74.24 42.976-37.408 21.632-36.8-64.608zM398.336 396.832l99.936-57.216v115.040l-99.936-57.824zM251.776 647.936l183.68-106.24 62.816 109.92v138.688l-246.496-142.368zM773.056 312.544l-116.352 67.328-129.248-74.912v-134.272l245.6 141.856zM627.52 396.768l-100.064 57.888v-115.904l100.064 58.048zM460.736 527.040l37.536-21.696v87.52l-37.536-65.824z" />
<glyph unicode="&#xe91e;" d="M208 656.416l304 175.584 304-175.584v-352.832l-304-175.584-304 175.584v352.832zM237.184 337.376l121.92 70.56 61.856 108.32-183.776 106.336v-285.216zM251.808 312.064l246.464-142.368v136.224l-129.216 74.016-117.248-67.84zM786.816 621.6l-182.144-105.376 61.824-108.224 120.32-69.632v283.232zM773.056 647.456l-245.6 141.856v-137.888l62.72-109.792 182.88 105.824zM579.552 501.696l-37.504-21.696 74.4-43.040-36.896 64.736zM565.056 527.104l-37.6 65.92v-87.68l37.6 21.76zM409.408 437.024l74.24 42.976-37.408 21.632-36.8-64.608zM398.336 396.832l99.936-57.216v115.040l-99.936-57.824zM251.776 647.936l183.68-106.24 62.816 109.92v138.688l-246.496-142.368zM773.056 312.544l-116.352 67.328-129.248-74.912v-134.272l245.6 141.856zM627.52 396.768l-100.064 57.888v-115.904l100.064 58.048zM460.736 527.040l37.536-21.696v87.52l-37.536-65.824z" />
<glyph unicode="&#xe91f;" d="M992 480c0-265.097-214.903-480-480-480s-480 214.903-480 480c0 265.097 214.903 480 480 480s480-214.903 480-480z" />
<glyph unicode="&#xe920;" d="M992 480c0-265.097-214.903-480-480-480s-480 214.903-480 480c0 265.097 214.903 480 480 480s480-214.903 480-480z" />
<glyph unicode="&#xe921;" d="M992 480c0-265.097-214.903-480-480-480s-480 214.903-480 480c0 265.097 214.903 480 480 480s480-214.903 480-480z" />
<glyph unicode="&#xe922;" d="M976 480c0-256.26-207.74-464-464-464s-464 207.74-464 464c0 256.26 207.74 464 464 464s464-207.74 464-464z" />
<glyph unicode="&#xe923;" d="M440.64 784h142.72c0.004 0 0.009 0 0.014 0 10.367 0 19.41-5.666 24.202-14.071l0.072-0.137 220.992-394.208c2.232-3.916 3.548-8.604 3.548-13.6s-1.316-9.684-3.62-13.738l0.072 0.138-70.72-126.144c-4.853-8.549-13.89-14.226-24.254-14.24h-443.33c-10.378 0.002-19.429 5.682-24.216 14.102l-0.072 0.138-70.688 126.144c-2.232 3.916-3.548 8.604-3.548 13.6s1.316 9.684 3.62 13.738l-0.072-0.138 220.992 394.208c4.864 8.542 13.907 14.208 24.274 14.208 0.005 0 0.010 0 0.015 0h-0.001zM512 627.168l-148.896-265.184h297.792l-148.896 265.184z" />
<glyph unicode="&#xe924;" d="M440.64 784h142.72c0.004 0 0.009 0 0.014 0 10.367 0 19.41-5.666 24.202-14.071l0.072-0.137 220.992-394.208c2.232-3.916 3.548-8.604 3.548-13.6s-1.316-9.684-3.62-13.738l0.072 0.138-70.72-126.144c-4.853-8.549-13.89-14.226-24.254-14.24h-443.33c-10.378 0.002-19.429 5.682-24.216 14.102l-0.072 0.138-70.688 126.144c-2.232 3.916-3.548 8.604-3.548 13.6s1.316 9.684 3.62 13.738l-0.072-0.138 220.992 394.208c4.864 8.542 13.907 14.208 24.274 14.208 0.005 0 0.010 0 0.015 0h-0.001zM512 627.168l-148.896-265.184h297.792l-148.896 265.184z" />
<glyph unicode="&#xe925;" d="M992 480c0-265.097-214.903-480-480-480s-480 214.903-480 480c0 265.097 214.903 480 480 480s480-214.903 480-480z" />
<glyph unicode="&#xe926;" d="M992 480c0-265.097-214.903-480-480-480s-480 214.903-480 480c0 265.097 214.903 480 480 480s480-214.903 480-480z" />
<glyph unicode="&#xe927;" d="M992 480c0-265.097-214.903-480-480-480s-480 214.903-480 480c0 265.097 214.903 480 480 480s480-214.903 480-480z" />
<glyph unicode="&#xe928;" d="M976 480c0-256.26-207.74-464-464-464s-464 207.74-464 464c0 256.26 207.74 464 464 464s464-207.74 464-464z" />
<glyph unicode="&#xe929;" d="M171.904 309.792l156.576 285.056c6.464 11.904 17.248 15.136 28.16 8.64h1.12c3.023-1.835 6.677-2.92 10.584-2.92 8.094 0 15.099 4.659 18.482 11.441l0.054 0.12 109.984 168.448c3.951 7.428 8.636 13.817 14.1 19.445l-0.020-0.021c4.928-6.048 8.576-12.992 10.784-20.48l47.52-117.728c10.752-27.008 36.672-46.464 63.68-46.464h8.608c13.856-0.48 27.008-6.304 36.736-16.192l34.496-36.672c10.24-10.816 19.648-22.368 28.16-34.56l111.232-159.808c4.16-6.336 8.128-12.8 11.84-19.424v-1.056c-6.059 4.739-11.372 9.961-16.048 15.721l-0.144 0.183-150.080 155.712c-9.049 9.127-16.941 19.423-23.423 30.637l-0.385 0.723c-11.968 25.888-27.040 36.736-50.752 35.616h-30.208c-18.304 0-22.656 3.2-28.16 21.6l-43.072 134.944c-7.552 27.040-8.672 27.040-16.192 0l-29.152-91.52c-6.496-18.304-8.64-48.576-5.44-48.576 1.152 0 8.672 14.080 20.576 38.88 2.24 5.056 5.12 9.792 8.576 14.080 2.752-10.336 4.224-20.928 4.384-31.616-3.627-8.528-7.269-15.624-11.341-22.432l0.461 0.832-1.024-3.264c-12.96-23.712-12.96-24.832 1.056-47.52l12.96-21.536c4.896-6.624 8.928-13.888 11.872-21.6-5.737-4.884-12.079-9.526-18.751-13.688l-0.673-0.392-66.944-43.2c-11.219-6.262-24.517-10.177-38.677-10.747l-0.171-0.005c-23.808 1.056-44.288-10.88-62.656-35.648l-25.92-36.736c-9.344-11.52-19.84-21.984-31.328-31.328l-23.712-19.424c-11.202-7.879-23.975-15.112-37.44-21.064l-1.44-0.568-12.96-3.2c-9.376-3.424-19.2-5.568-29.12-6.432-4.448 0-8.672 0-8.672 1.056 3.36 7.872 7.36 15.424 11.904 22.656z" />
<glyph unicode="&#xe92a;" d="M992 480c0-265.097-214.903-480-480-480s-480 214.903-480 480c0 265.097 214.903 480 480 480s480-214.903 480-480z" />
<glyph unicode="&#xe92b;" d="M992 480c0-265.097-214.903-480-480-480s-480 214.903-480 480c0 265.097 214.903 480 480 480s480-214.903 480-480z" />
<glyph unicode="&#xe92c;" d="M992 480c0-265.097-214.903-480-480-480s-480 214.903-480 480c0 265.097 214.903 480 480 480s480-214.903 480-480z" />
<glyph unicode="&#xe92d;" d="M976 480c0-256.26-207.74-464-464-464s-464 207.74-464 464c0 256.26 207.74 464 464 464s464-207.74 464-464z" />
<glyph unicode="&#xe92e;" d="M503.2 798.080c15.328 7.904 34.048-10.368 25.92-25.44-4.768-12.288-22.72-15.552-31.872-6.176-9.696 8.96-6.528 26.752 5.952 31.648zM338.24 780.608c9.312 3.776 21.12-4.608 20.16-14.624 0.96-10.816-12.48-18.816-21.984-13.664-12.576 4.8-11.136 24.896 1.824 28.288zM676.096 752.032c-14.56 1.728-16.864 24.256-2.88 28.8 10.88 5.184 20.864-4.576 22.464-14.72-2.304-8.64-9.664-16.576-19.584-14.080zM375.776 711.552c15.584 9.696 37.792-4.736 35.392-22.56-0.8-17.952-25.056-28.384-38.752-16.224-13.248 9.536-11.232 31.424 3.36 38.784zM613.536 701.248c6.944 17.6 35.104 18.176 43.008 1.024 7.84-13.344-1.792-29.888-15.712-34.432-18.464-3.392-35.968 16.256-27.296 33.408zM483.328 668.832c-0.16 15.168 13.856 26.432 28.48 27.488 9.728-1.92 20.288-5.984 24.448-15.616 7.776-13.312 0.864-31.584-13.12-37.696-6.4-3.52-14.016-2.208-20.992-1.792-10.656 5.12-19.648 15.264-18.816 27.616zM238.016 646.752c14.24 8.64 33.44-7.040 28.032-22.272-2.944-13.152-20.928-18.496-31.2-10.112-10.976 7.872-9.248 26.784 3.2 32.416zM764.8 646.848c12.064 9.216 32-1.376 30.528-16.352 0.832-13.664-16.416-24-28.384-16.96-13.184 5.856-14.56 25.824-2.144 33.28zM552.32 619.616c19.904 7.040 43.584-1.376 54.912-18.88 14.976-21.344 7.040-53.856-16.224-66.112-24.064-14.496-59.232-2.24-68.16 24.256-10.080 23.68 4.64 53.312 29.44 60.736zM435.424 617.28c22.080 10.24 51.808 1.664 62.464-20.544 12.544-21.632 2.848-51.744-19.584-62.912-22.464-12.576-54.176-3.040-65.024 20.16-12.192 22.464-1.376 52.96 22.144 63.296zM318.4 577.92c1.696 13.984 15.104 23.104 28.64 24.064 14.555-1.582 26.037-12.921 27.824-27.271l0.016-0.153c-0.96-14.4-12.256-28.416-27.744-28.352-17.056-1.44-32 15.264-28.736 31.712zM664.064 598.912c17.504 10.016 41.792-4.544 41.024-24.32 1.184-20.96-25.696-35.712-43.104-23.424-18.112 10.24-16.704 39.040 2.080 47.744zM387.904 525.088c20.416 5.536 43.84-3.936 53.856-22.432 10.976-18.624 6.496-44.48-10.56-58.176-21.92-20.032-62.272-11.968-73.92 15.36-13.408 25.056 2.88 58.656 30.592 65.28zM609.568 525.184c19.872 5.6 43.232-1.92 53.92-19.744 14.144-20.384 7.392-50.816-13.632-63.936-22.080-15.264-56.192-7.264-68.352 16.608-14.72 24.672 0.096 59.552 28.064 67.072zM256.288 501.952c17.664 6.56 37.248-12.608 30.080-29.856-4.352-15.68-26.848-21.504-38.464-9.92-13.6 10.88-8.576 35.040 8.384 39.776zM735.296 476.928c-0.019 0.376-0.030 0.816-0.030 1.258 0 14.245 11.134 25.889 25.173 26.706l0.072 0.003c12.096-1.92 23.872-11.52 22.912-24.48 1.12-17.12-19.84-28.736-34.688-20.704-6.944 3.488-10.496 10.496-13.44 17.216zM169.408 493.44c10.624 4.576 23.776-4.48 21.344-16.096-0.576-13.152-20.32-18.24-27.552-7.232-6.4 7.648-2.56 19.392 6.208 23.36zM839.776 493.728c7.488 5.216 19.52 1.472 22.464-7.136 5.024-9.408-4.192-22.272-14.944-20.704-15.104-1.344-19.968 21.28-7.52 27.84zM445.632 430.592c27.968 7.136 58.048-15.808 58.24-44.16 1.792-28.64-27.84-54.016-56.448-47.424-22.144 3.52-39.52 24.512-38.784 46.496-0.064 21.056 16.064 40.64 36.992 45.088zM556.416 430.624c28.384 7.808 59.36-15.552 58.912-44.544 1.504-28.096-27.2-52.64-55.232-47.040-26.4 3.328-45.856 31.84-38.496 57.056 3.712 16.768 17.984 30.4 34.816 34.56zM342.784 413.184c19.648 3.296 38.080-18.24 30.112-36.608-5.824-19.584-34.752-24.864-47.552-8.896-14.976 15.36-3.776 43.392 17.44 45.504zM667.712 412.32c17.536 7.232 39.040-7.68 37.696-26.4 0.704-20.576-25.856-34.784-42.976-22.752-19.424 10.784-15.872 42.56 5.28 49.152zM758.528 322.72c-6.848 12.576 5.6 29.248 19.84 26.912 7.040 0.128 12-5.344 16.512-9.952 0.928-7.456 2.496-16.352-3.808-22.080-8.544-10.656-27.904-7.616-32.544 5.12zM237.952 346.144c13.28 8.672 32.384-4.288 29.376-19.52-1.6-13.536-18.88-21.248-30.24-13.568-12.224 6.944-11.776 26.752 0.864 33.088zM500.128 317.888c17.376 7.52 39.52-7.36 37.856-26.176 1.28-20.8-26.080-35.2-43.072-22.72-18.88 10.72-15.712 42.272 5.216 48.896zM378.72 290.016c14.784 7.648 34.624-5.568 33.28-21.888 0.448-13.376-12.8-24.768-26.24-22.784-11.104 0.224-18.336 10.048-21.92 19.36 0.192 10.144 4.448 21.44 14.88 25.28zM624.672 289.76c15.232 9.28 36.864-4.032 35.424-21.44 0.384-18.24-24.064-29.888-38.24-17.92-13.696 9.376-12.032 31.904 2.816 39.36zM667.456 185.76c-6.784 10.048 1.184 22.176 12.16 24.48 8.864-1.76 18.24-8.32 16.352-18.368-1.28-13.664-21.568-17.824-28.512-6.144zM327.904 194.496c2.688 8 9.216 15.904 18.784 13.824 13.92-0.96 18.048-21.632 5.856-28-10.944-7.264-23.68 2.688-24.64 14.176zM491.744 185.312c2.656 11.84 18.176 17.568 28.416 11.296 6.784-2.88 8.768-10.304 10.496-16.64-0.455-1.31-1.337-4.635-2.158-7.984l-0.402-1.936c-4.192-4.864-9.6-9.76-16.576-9.6-12.96-1.504-24.672 12.928-19.808 24.864z" />
<glyph unicode="&#xe92f;" d="M503.2 798.080c15.328 7.904 34.048-10.368 25.92-25.44-4.768-12.288-22.72-15.552-31.872-6.176-9.696 8.96-6.528 26.752 5.952 31.648zM338.24 780.608c9.312 3.776 21.12-4.608 20.16-14.624 0.96-10.816-12.48-18.816-21.984-13.664-12.576 4.8-11.136 24.896 1.824 28.288zM676.096 752.032c-14.56 1.728-16.864 24.256-2.88 28.8 10.88 5.184 20.864-4.576 22.464-14.72-2.304-8.64-9.664-16.576-19.584-14.080zM375.776 711.552c15.584 9.696 37.792-4.736 35.392-22.56-0.8-17.952-25.056-28.384-38.752-16.224-13.248 9.536-11.232 31.424 3.36 38.784zM613.536 701.248c6.944 17.6 35.104 18.176 43.008 1.024 7.84-13.344-1.792-29.888-15.712-34.432-18.464-3.392-35.968 16.256-27.296 33.408zM483.328 668.832c-0.16 15.168 13.856 26.432 28.48 27.488 9.728-1.92 20.288-5.984 24.448-15.616 7.776-13.312 0.864-31.584-13.12-37.696-6.4-3.52-14.016-2.208-20.992-1.792-10.656 5.12-19.648 15.264-18.816 27.616zM238.016 646.752c14.24 8.64 33.44-7.040 28.032-22.272-2.944-13.152-20.928-18.496-31.2-10.112-10.976 7.872-9.248 26.784 3.2 32.416zM764.8 646.848c12.064 9.216 32-1.376 30.528-16.352 0.832-13.664-16.416-24-28.384-16.96-13.184 5.856-14.56 25.824-2.144 33.28zM552.32 619.616c19.904 7.040 43.584-1.376 54.912-18.88 14.976-21.344 7.040-53.856-16.224-66.112-24.064-14.496-59.232-2.24-68.16 24.256-10.080 23.68 4.64 53.312 29.44 60.736zM435.424 617.28c22.080 10.24 51.808 1.664 62.464-20.544 12.544-21.632 2.848-51.744-19.584-62.912-22.464-12.576-54.176-3.040-65.024 20.16-12.192 22.464-1.376 52.96 22.144 63.296zM318.4 577.92c1.696 13.984 15.104 23.104 28.64 24.064 14.555-1.582 26.037-12.921 27.824-27.271l0.016-0.153c-0.96-14.4-12.256-28.416-27.744-28.352-17.056-1.44-32 15.264-28.736 31.712zM664.064 598.912c17.504 10.016 41.792-4.544 41.024-24.32 1.184-20.96-25.696-35.712-43.104-23.424-18.112 10.24-16.704 39.040 2.080 47.744zM387.904 525.088c20.416 5.536 43.84-3.936 53.856-22.432 10.976-18.624 6.496-44.48-10.56-58.176-21.92-20.032-62.272-11.968-73.92 15.36-13.408 25.056 2.88 58.656 30.592 65.28zM609.568 525.184c19.872 5.6 43.232-1.92 53.92-19.744 14.144-20.384 7.392-50.816-13.632-63.936-22.080-15.264-56.192-7.264-68.352 16.608-14.72 24.672 0.096 59.552 28.064 67.072zM256.288 501.952c17.664 6.56 37.248-12.608 30.080-29.856-4.352-15.68-26.848-21.504-38.464-9.92-13.6 10.88-8.576 35.040 8.384 39.776zM735.296 476.928c-0.019 0.376-0.030 0.816-0.030 1.258 0 14.245 11.134 25.889 25.173 26.706l0.072 0.003c12.096-1.92 23.872-11.52 22.912-24.48 1.12-17.12-19.84-28.736-34.688-20.704-6.944 3.488-10.496 10.496-13.44 17.216zM169.408 493.44c10.624 4.576 23.776-4.48 21.344-16.096-0.576-13.152-20.32-18.24-27.552-7.232-6.4 7.648-2.56 19.392 6.208 23.36zM839.776 493.728c7.488 5.216 19.52 1.472 22.464-7.136 5.024-9.408-4.192-22.272-14.944-20.704-15.104-1.344-19.968 21.28-7.52 27.84zM445.632 430.592c27.968 7.136 58.048-15.808 58.24-44.16 1.792-28.64-27.84-54.016-56.448-47.424-22.144 3.52-39.52 24.512-38.784 46.496-0.064 21.056 16.064 40.64 36.992 45.088zM556.416 430.624c28.384 7.808 59.36-15.552 58.912-44.544 1.504-28.096-27.2-52.64-55.232-47.040-26.4 3.328-45.856 31.84-38.496 57.056 3.712 16.768 17.984 30.4 34.816 34.56zM342.784 413.184c19.648 3.296 38.080-18.24 30.112-36.608-5.824-19.584-34.752-24.864-47.552-8.896-14.976 15.36-3.776 43.392 17.44 45.504zM667.712 412.32c17.536 7.232 39.040-7.68 37.696-26.4 0.704-20.576-25.856-34.784-42.976-22.752-19.424 10.784-15.872 42.56 5.28 49.152zM758.528 322.72c-6.848 12.576 5.6 29.248 19.84 26.912 7.040 0.128 12-5.344 16.512-9.952 0.928-7.456 2.496-16.352-3.808-22.080-8.544-10.656-27.904-7.616-32.544 5.12zM237.952 346.144c13.28 8.672 32.384-4.288 29.376-19.52-1.6-13.536-18.88-21.248-30.24-13.568-12.224 6.944-11.776 26.752 0.864 33.088zM500.128 317.888c17.376 7.52 39.52-7.36 37.856-26.176 1.28-20.8-26.080-35.2-43.072-22.72-18.88 10.72-15.712 42.272 5.216 48.896zM378.72 290.016c14.784 7.648 34.624-5.568 33.28-21.888 0.448-13.376-12.8-24.768-26.24-22.784-11.104 0.224-18.336 10.048-21.92 19.36 0.192 10.144 4.448 21.44 14.88 25.28zM624.672 289.76c15.232 9.28 36.864-4.032 35.424-21.44 0.384-18.24-24.064-29.888-38.24-17.92-13.696 9.376-12.032 31.904 2.816 39.36zM667.456 185.76c-6.784 10.048 1.184 22.176 12.16 24.48 8.864-1.76 18.24-8.32 16.352-18.368-1.28-13.664-21.568-17.824-28.512-6.144zM327.904 194.496c2.688 8 9.216 15.904 18.784 13.824 13.92-0.96 18.048-21.632 5.856-28-10.944-7.264-23.68 2.688-24.64 14.176zM491.744 185.312c2.656 11.84 18.176 17.568 28.416 11.296 6.784-2.88 8.768-10.304 10.496-16.64-0.455-1.31-1.337-4.635-2.158-7.984l-0.402-1.936c-4.192-4.864-9.6-9.76-16.576-9.6-12.96-1.504-24.672 12.928-19.808 24.864z" />
<glyph unicode="&#xe930;" d="M992 480c0-265.097-214.903-480-480-480s-480 214.903-480 480c0 265.097 214.903 480 480 480s480-214.903 480-480z" />
<glyph unicode="&#xe931;" d="M992 480c0-265.097-214.903-480-480-480s-480 214.903-480 480c0 265.097 214.903 480 480 480s480-214.903 480-480z" />
<glyph unicode="&#xe932;" d="M992 480c0-265.097-214.903-480-480-480s-480 214.903-480 480c0 265.097 214.903 480 480 480s480-214.903 480-480z" />
<glyph unicode="&#xe933;" d="M976 480c0-256.26-207.74-464-464-464s-464 207.74-464 464c0 256.26 207.74 464 464 464s464-207.74 464-464z" />
<glyph unicode="&#xe934;" d="M806.784 447.616h-150.528l-26.88 80.64h177.152c12.619 0 22.848 10.229 22.848 22.848s-10.229 22.848-22.848 22.848v0h-191.68l-76.864 234.4c-2.072 16.302-15.855 28.779-32.553 28.779-15.934 0-29.215-11.362-32.181-26.427l-0.034-0.208-183.872-559.104c-0.231-1.371-0.364-2.95-0.364-4.56s0.132-3.189 0.387-4.727l-0.023 0.167c0.33-16.817 14.041-30.324 30.906-30.324 14.188 0 26.143 9.558 29.778 22.586l0.052 0.217 154.304 470.4 44.096-131.2h-38.176c-12.619 0-22.848-10.229-22.848-22.848s10.229-22.848 22.848-22.848h53.76l26.88-80.64h-80.64c-12.619 0-22.848-10.229-22.848-22.848s10.229-22.848 22.848-22.848v0h96.48l43.552-129.024h-230.88c-17.814 0-32.256-14.442-32.256-32.256s14.442-32.256 32.256-32.256v0h273.088c16.931 0 30.656 13.725 30.656 30.656v0c0 0.025 0 0.055 0 0.084 0 4.85-1.098 9.443-3.058 13.545l0.082-0.19-49.184 149.44h134.4c12.619 0 22.848 10.229 22.848 22.848s-10.229 22.848-22.848 22.848v0h1.344z" />
<glyph unicode="&#xe935;" d="M992 480c0-265.097-214.903-480-480-480s-480 214.903-480 480c0 265.097 214.903 480 480 480s480-214.903 480-480z" />
<glyph unicode="&#xe936;" d="M992 480c0-265.097-214.903-480-480-480s-480 214.903-480 480c0 265.097 214.903 480 480 480s480-214.903 480-480z" />
<glyph unicode="&#xe937;" d="M992 480c0-265.097-214.903-480-480-480s-480 214.903-480 480c0 265.097 214.903 480 480 480s480-214.903 480-480z" />
<glyph unicode="&#xe938;" d="M976 480c0-256.26-207.74-464-464-464s-464 207.74-464 464c0 256.26 207.74 464 464 464s464-207.74 464-464z" />
<glyph unicode="&#xe939;" d="M370.784 716.736l141.216-147.392 137.76 147.392 86.24-88.256-140.672-148.48 140.672-147.296-86.24-89.376-137.76 147.328-141.216-147.328-82.784 86.912 139.52 150.592-139.52 147.648 82.784 88.224zM382.144 728.768l129.28 135.232 129.28-135.232-68.032-72.48-61.248 67.648-61.248-67.648-68.032 72.48zM382.144 231.232l68.032 72.48 61.248-67.648 61.248 67.648 68.032-72.48-129.28-135.232-129.28 135.232z" />
<glyph unicode="&#xe93a;" d="M370.784 716.736l141.216-147.392 137.76 147.392 86.24-88.256-140.672-148.48 140.672-147.296-86.24-89.376-137.76 147.328-141.216-147.328-82.784 86.912 139.52 150.592-139.52 147.648 82.784 88.224zM382.144 728.768l129.28 135.232 129.28-135.232-68.032-72.48-61.248 67.648-61.248-67.648-68.032 72.48zM382.144 231.232l68.032 72.48 61.248-67.648 61.248 67.648 68.032-72.48-129.28-135.232-129.28 135.232z" />
<glyph unicode="&#xe93b;" d="M992 480c0-265.097-214.903-480-480-480s-480 214.903-480 480c0 265.097 214.903 480 480 480s480-214.903 480-480z" />
<glyph unicode="&#xe93c;" d="M992 480c0-265.097-214.903-480-480-480s-480 214.903-480 480c0 265.097 214.903 480 480 480s480-214.903 480-480z" />
<glyph unicode="&#xe93d;" d="M992 480c0-265.097-214.903-480-480-480s-480 214.903-480 480c0 265.097 214.903 480 480 480s480-214.903 480-480z" />
<glyph unicode="&#xe93e;" d="M976 480c0-256.26-207.74-464-464-464s-464 207.74-464 464c0 256.26 207.74 464 464 464s464-207.74 464-464z" />
<glyph unicode="&#xe93f;" d="M312.064 640h28.928c45.216-4.288 87.040-26.272 117.984-57.92 64.288-65.248 99.616-157.312 181.44-205.856 59.136-35.104 141.856-6.4 170.912 52.928 14.784 0.256 29.664 0.256 44.448 0.192-20.352-60.256-79.648-103.552-144.48-109.344h-23.872c-39.904 3.2-78.72 18.048-108.896 43.712-43.84 35.936-72 85.248-106.080 129.152-29.312 38.816-59.2 82.464-107.712 100.096-59.936 21.728-133.12-12.256-154.976-69.984-19.2-47.552-3.584-106.496 39.36-136.96 32.192-24.064 77.024-33.056 115.68-19.040 42.944 14.976 74.816 49.024 99.264 85.12 9.632-13.344 19.008-26.88 28.288-40.512-38.016-46.304-90.752-86.080-153.472-91.584h-25.696c-79.040 5.312-147.744 70.272-153.184 147.008v25.12c5.12 76.576 72.96 142.304 152.064 147.872zM685.824 640h24c79.776-5.024 147.616-71.296 154.176-148.032v-39.36c-65.824-0.576-131.712-0.192-197.536-0.256 0.064 11.52 0.064 22.944 0 34.464 52.032 0.128 104-0.224 155.936 0.128-3.68 20.352-8.448 41.184-20.928 58.432-30.4 44.928-94.688 63.296-146.080 43.84-40.96-14.72-71.808-46.912-95.584-81.28-9.152 12.704-18.24 25.6-27.040 38.592 37.536 46.976 89.92 87.616 153.056 93.472z" />
<glyph unicode="&#xe940;" d="M312.064 640h28.928c45.216-4.288 87.040-26.272 117.984-57.92 64.288-65.248 99.616-157.312 181.44-205.856 59.136-35.104 141.856-6.4 170.912 52.928 14.784 0.256 29.664 0.256 44.448 0.192-20.352-60.256-79.648-103.552-144.48-109.344h-23.872c-39.904 3.2-78.72 18.048-108.896 43.712-43.84 35.936-72 85.248-106.080 129.152-29.312 38.816-59.2 82.464-107.712 100.096-59.936 21.728-133.12-12.256-154.976-69.984-19.2-47.552-3.584-106.496 39.36-136.96 32.192-24.064 77.024-33.056 115.68-19.040 42.944 14.976 74.816 49.024 99.264 85.12 9.632-13.344 19.008-26.88 28.288-40.512-38.016-46.304-90.752-86.080-153.472-91.584h-25.696c-79.040 5.312-147.744 70.272-153.184 147.008v25.12c5.12 76.576 72.96 142.304 152.064 147.872zM685.824 640h24c79.776-5.024 147.616-71.296 154.176-148.032v-39.36c-65.824-0.576-131.712-0.192-197.536-0.256 0.064 11.52 0.064 22.944 0 34.464 52.032 0.128 104-0.224 155.936 0.128-3.68 20.352-8.448 41.184-20.928 58.432-30.4 44.928-94.688 63.296-146.080 43.84-40.96-14.72-71.808-46.912-95.584-81.28-9.152 12.704-18.24 25.6-27.040 38.592 37.536 46.976 89.92 87.616 153.056 93.472z" />
<glyph unicode="&#xe941;" d="M992 480c0-265.097-214.903-480-480-480s-480 214.903-480 480c0 265.097 214.903 480 480 480s480-214.903 480-480z" />
<glyph unicode="&#xe942;" d="M992 480c0-265.097-214.903-480-480-480s-480 214.903-480 480c0 265.097 214.903 480 480 480s480-214.903 480-480z" />
<glyph unicode="&#xe943;" d="M992 480c0-265.097-214.903-480-480-480s-480 214.903-480 480c0 265.097 214.903 480 480 480s480-214.903 480-480z" />
<glyph unicode="&#xe944;" d="M976 480c0-256.26-207.74-464-464-464s-464 207.74-464 464c0 256.26 207.74 464 464 464s464-207.74 464-464z" />
<glyph unicode="&#xe945;" d="M453.76 470.624c-14.432 0-25.376-2.432-32.928-7.072-7.296-4.48-10.944-11.296-10.944-20.32 0-6.656 2.272-12.064 6.56-15.936 4.384-3.84 10.56-5.76 18.24-5.76 11.936 0 21.856 3.712 29.76 11.040 7.936 7.456 13.344 17.856 16 31.232l1.248 6.816h-27.904zM606.944 533.728c-4.416 3.84-10.56 5.76-18.24 5.76-11.936 0-21.888-3.712-29.792-11.040-7.936-7.456-13.344-17.856-16-31.232l-1.248-6.816 27.936 0.128c14.432 0 25.376 2.464 32.96 7.072 7.264 4.48 10.88 11.328 10.88 20.32 0 6.688-2.112 11.936-6.496 15.808z" />
<glyph unicode="&#xe946;" d="M831.008 517.536c-9.6 86.208-160.32 139.552-336.64 119.136-176.256-20.448-311.424-106.944-301.856-193.184 9.536-86.208 160.192-139.552 336.576-119.104 176.416 20.416 311.456 106.88 301.92 193.152zM646.528 474.336c-17.856-12.704-43.872-19.008-78.080-19.136l-33.184-0.128-1.024-4.768c-0.282-0.953-0.456-2.052-0.48-3.187v-0.013c-0.128-0.64-0.128-1.28-0.128-1.792 0-7.36 3.392-12.736 10.048-16.32 6.656-3.744 16.608-5.536 29.568-5.536 12.32 0 24.128 1.408 35.328 3.968 11.040 2.56 21.76 6.432 31.936 11.584l-8.448-45.248c-9.917-2.626-22.444-5.089-35.198-6.842l-1.762-0.198c-10.502-1.601-22.655-2.541-35.018-2.592h-0.054c-16.096 0-29.44 1.92-40.096 6.048-11.072 4.224-23.392 13.472-29.568 26.72-11.039-10.542-23.932-19.264-38.119-25.61l-0.857-0.342c-12.413-5.461-26.884-8.64-42.098-8.64-0.050 0-0.1 0-0.15 0h0.008c-18.368-0.096-32.832 4.384-43.136 13.248-10.432 8.896-15.584 21.216-15.712 36.768-0.128 23.904 8.8 42.016 26.528 54.624 17.856 12.704 43.872 19.008 78.080 19.136l33.184 0.128 1.024 4.768c0.292 0.95 0.477 2.047 0.512 3.181v0.019c0.128 0.64 0.128 1.28 0.128 1.792 0.004 0.139 0.006 0.302 0.006 0.465 0 6.974-4.079 12.995-9.98 15.809l-0.106 0.045c-6.656 3.744-16.576 5.536-29.536 5.536-0.039 0-0.085 0-0.131 0-12.479 0-24.621-1.446-36.267-4.18l1.070 0.212c-12.119-2.842-22.768-6.821-32.725-11.954l0.789 0.37 8.416 45.248c9.917 2.626 22.444 5.089 35.198 6.842l1.762 0.198c10.501 1.6 22.654 2.54 35.017 2.592h0.055c16.096 0 29.44-1.92 40.128-6.048 11.072-4.224 23.36-13.472 29.536-26.72 11.039 10.542 23.932 19.264 38.119 25.61l0.857 0.342c13.344 5.664 27.424 8.64 42.24 8.64 18.368 0.096 32.832-4.384 43.136-13.248 10.432-8.864 15.584-21.216 15.712-36.768 0.128-23.776-8.64-42.016-26.528-54.624z" />
<glyph unicode="&#xe947;" d="M527.2 314.080c-22.594-2.764-48.757-4.345-75.287-4.352h-0.009c-58.336 0-112.928 8.224-158.304 24.288-20.494 7.115-38.201 15.787-54.632 26.28l1.032-0.616c-6.176-32.512-2.016-61.184 13.952-82.496 45.888-61.312 174.272-41.792 301.28 40.736-9.312-1.408-18.624-2.72-28.064-3.84zM497.408 645.664c86.144 10.016 169.12 2.944 233.6-19.936 20.494-7.125 38.2-15.807 54.629-26.312l-1.029 0.616c6.144 32.512 2.016 61.184-13.952 82.496-45.92 61.312-174.272 41.792-301.28-40.736 9.28 1.536 18.72 2.848 28.032 3.84z" />
<glyph unicode="&#xe948;" d="M403.744 239.552c-15.105-3.776-32.664-6.302-50.687-7.024l-0.513-0.016c12.96-34.336 33.216-58.368 60-67.36 64.64-21.76 148.256 49.472 207.456 167.328-13.952-3.84-28.416-7.36-43.008-10.304-57.824-40.864-118.176-69.76-173.248-82.624zM624.8 721.088c15.123 3.71 32.685 6.159 50.706 6.803l0.462 0.013c-12.832 34.304-32.96 58.464-59.744 67.584-64.48 21.984-148.48-48.832-208.096-166.272 13.984 3.84 28.416 7.2 43.136 10.016 57.856 40.736 118.336 69.248 173.536 81.856z" />
<glyph unicode="&#xe949;" d="M992 480c0-265.097-214.903-480-480-480s-480 214.903-480 480c0 265.097 214.903 480 480 480s480-214.903 480-480z" />
<glyph unicode="&#xe94a;" d="M992 480c0-265.097-214.903-480-480-480s-480 214.903-480 480c0 265.097 214.903 480 480 480s480-214.903 480-480z" />
<glyph unicode="&#xe94b;" d="M992 480c0-265.097-214.903-480-480-480s-480 214.903-480 480c0 265.097 214.903 480 480 480s480-214.903 480-480z" />
<glyph unicode="&#xe94c;" d="M976 480c0-256.26-207.74-464-464-464s-464 207.74-464 464c0 256.26 207.74 464 464 464s464-207.74 464-464z" />
<glyph unicode="&#xe94d;" d="M511.776 352.448c-123.588 0-223.776 100.188-223.776 223.776s100.188 223.776 223.776 223.776c123.588 0 223.776-100.188 223.776-223.776v0c-0.164-123.522-100.254-223.612-223.76-223.776h-0.016zM512 577.568c-0.866 0-1.568-0.702-1.568-1.568s0.702-1.568 1.568-1.568c0.866 0 1.568 0.702 1.568 1.568v0c-0.077 0.851-0.749 1.523-1.593 1.6h-0.007z" />
<glyph unicode="&#xe94e;" d="M511.776 128.448c-123.588 0-223.776 100.188-223.776 223.776s100.188 223.776 223.776 223.776c123.588 0 223.776-100.188 223.776-223.776v0c-0.164-123.522-100.254-223.612-223.76-223.776h-0.016zM512 353.568c-0.866 0-1.568-0.702-1.568-1.568s0.702-1.568 1.568-1.568c0.866 0 1.568 0.702 1.568 1.568v0c-0.077 0.851-0.749 1.523-1.593 1.6h-0.007z" />
<glyph unicode="&#xe94f;" d="M992 480c0-265.097-214.903-480-480-480s-480 214.903-480 480c0 265.097 214.903 480 480 480s480-214.903 480-480z" />
<glyph unicode="&#xe950;" d="M992 480c0-265.097-214.903-480-480-480s-480 214.903-480 480c0 265.097 214.903 480 480 480s480-214.903 480-480z" />
<glyph unicode="&#xe951;" d="M992 480c0-265.097-214.903-480-480-480s-480 214.903-480 480c0 265.097 214.903 480 480 480s480-214.903 480-480z" />
<glyph unicode="&#xe952;" d="M976 480c0-256.26-207.74-464-464-464s-464 207.74-464 464c0 256.26 207.74 464 464 464s464-207.74 464-464z" />
<glyph unicode="&#xe953;" d="M548.608 786.432c-2.277 1.646-3.741 4.293-3.741 7.283 0 1.59 0.414 3.083 1.14 4.378l-0.023-0.045c1.415 0.924 3.147 1.473 5.008 1.473s3.593-0.55 5.044-1.495l-0.036 0.022c23.413-9.868 43.36-23.629 59.963-40.665l0.037-0.039c9.696-8.992 17.824-19.488 24-31.040 6.528-11.776 11.872-24.096 16-36.864 3.936-13.216 5.984-26.944 6.016-40.704-2.016-13.6-4.032-79.52-42.016-110.56-3.36-2.052-7.425-3.267-11.774-3.267-7.428 0-14.028 3.545-18.201 9.035l-0.041 0.056c-2.982 3.481-4.797 8.038-4.797 13.019 0 3.781 1.046 7.317 2.864 10.336l-0.050-0.090c16.202 24.749 25.842 55.064 25.842 87.631 0 29.875-8.112 57.856-22.253 81.86l0.412-0.755c-12.8 18.112-27.328 34.976-43.392 50.432zM489.6 191.808c4-3.872 4-7.744 2.016-9.696-2.016-1.92-6.016-3.872-8-1.92-23.425 9.865-43.384 23.626-59.995 40.666l-0.037 0.038c-9.496 8.804-17.495 19.048-23.69 30.418l-0.31 0.622c-5.949 10.463-11.366 22.643-15.581 35.371l-0.419 1.461c-3.772 12.188-5.957 26.202-5.984 40.722v0.014c2.016 13.568 4 79.52 41.984 110.56 3.36 2.052 7.425 3.267 11.774 3.267 7.428 0 14.028-3.545 18.201-9.035l0.041-0.056c2.807-3.058 4.527-7.152 4.527-11.648s-1.72-8.59-4.539-11.661l0.011 0.013c-16.196-24.745-25.832-55.056-25.832-87.616 0-29.869 8.108-57.843 22.243-81.843l-0.412 0.756c12.96-18.144 27.712-35.040 44-50.432z" />
<glyph unicode="&#xe954;" d="M662.208 351.808c-3.112 38.885-18.484 73.682-42.201 101.051l0.185-0.219c-24.114 24.232-51.775 44.903-82.147 61.173l-1.853 0.907c-28.82 16.072-53.698 33.473-76.638 53.076l0.638-0.532c-18.811 17.71-32.274 40.907-37.833 67.027l-0.151 0.845c-1.336 7.153-2.1 15.382-2.1 23.79 0 20.129 4.38 39.235 12.24 56.417l-0.347-0.848c13.91 28.396 32.838 52.297 55.847 71.464l0.345 0.28c1.724 1.531 2.805 3.754 2.805 6.229 0 1.257-0.279 2.449-0.778 3.518l0.021-0.051c-1.351 2.382-3.87 3.963-6.758 3.963-2.024 0-3.867-0.777-5.247-2.048l0.005 0.005c-32.392-14.363-58.911-36.994-77.603-65.255l-0.413-0.665c-17.996-25.557-28.761-57.333-28.761-91.623 0-4.616 0.195-9.186 0.577-13.702l-0.040 0.589c1.745-20.006 6.732-38.433 14.445-55.356l-0.429 1.052c8.817-17.831 19.497-33.162 32.104-46.673l-0.104 0.113c24.669-23.602 52.999-43.663 83.993-59.192l1.991-0.904c27.136-14.080 52.64-31.008 76-50.432 19.983-17.597 33.773-41.809 37.936-69.185l0.080-0.639c5.632-28.128 2.112-57.28-10.016-83.392-14.085-28.050-33.678-51.421-57.524-69.467l-0.492-0.357c-2.001-1.165-3.324-3.3-3.324-5.744 0-1.489 0.491-2.863 1.321-3.97l-0.012 0.017c1.351-2.382 3.87-3.963 6.758-3.963 2.024 0 3.867 0.777 5.247 2.048l-0.005-0.005c30.227 17.629 55.533 40.322 75.562 67.18l0.47 0.66c16.732 25.457 26.689 56.665 26.689 90.198 0 4.441-0.175 8.841-0.517 13.194l0.036-0.575z" />
<glyph unicode="&#xe955;" d="M992 480c0-265.097-214.903-480-480-480s-480 214.903-480 480c0 265.097 214.903 480 480 480s480-214.903 480-480z" />
<glyph unicode="&#xe956;" d="M992 480c0-265.097-214.903-480-480-480s-480 214.903-480 480c0 265.097 214.903 480 480 480s480-214.903 480-480z" />
<glyph unicode="&#xe957;" d="M992 480c0-265.097-214.903-480-480-480s-480 214.903-480 480c0 265.097 214.903 480 480 480s480-214.903 480-480z" />
<glyph unicode="&#xe958;" d="M976 480c0-256.26-207.74-464-464-464s-464 207.74-464 464c0 256.26 207.74 464 464 464s464-207.74 464-464z" />
<glyph unicode="&#xe959;" d="M632.16 437.312c71.872 112.608 127.84 298.688 127.84 298.688l-119.84-27.168-43.872-155.2c-4.128 116.352-83.904 158.944-83.904 158.944-63.904 31.136-120.864 17.44-161.92-3.968-50.816-26.432-87.776-72.512-105.472-125.568-25.152-75.488-22.080-160.192-18.752-198.528 1.344-17.984 5.312-35.68 11.84-52.576 44.096-114.336 166.24-107.84 166.24-107.84 111.904 3.968 179.904 135.744 179.904 135.744l32.064-96.896c28.736-48.608 92.384-30.4 105.472-27.68 2.304 0.512 4.352 0.768 6.688 1.28l71.552 10.912v31.136c-155.776-4.224-167.84 158.688-167.84 158.688zM480.512 320.192c-9.38-9.607-21.268-16.725-34.606-20.295l-0.53-0.121c-29.024-7.232-51.328 4.96-66.72 19.904-16.686 16.845-28.654 38.39-33.743 62.474l-0.145 0.822c-28.224 159.68 10.784 229.664 36.704 261.824 13.348 16.934 33.86 27.706 56.888 27.706 1.016 0 2.027-0.021 3.032-0.062l-0.144 0.005c100.608-5.248 123.2-215.744 123.2-215.744-28.48-74.72-65.184-118.080-83.936-136.512z" />
<glyph unicode="&#xe95a;" d="M632.16 437.312c71.872 112.608 127.84 298.688 127.84 298.688l-119.84-27.168-43.872-155.2c-4.128 116.352-83.904 158.944-83.904 158.944-63.904 31.136-120.864 17.44-161.92-3.968-50.816-26.432-87.776-72.512-105.472-125.568-25.152-75.488-22.080-160.192-18.752-198.528 1.344-17.984 5.312-35.68 11.84-52.576 44.096-114.336 166.24-107.84 166.24-107.84 111.904 3.968 179.904 135.744 179.904 135.744l32.064-96.896c28.736-48.608 92.384-30.4 105.472-27.68 2.304 0.512 4.352 0.768 6.688 1.28l71.552 10.912v31.136c-155.776-4.224-167.84 158.688-167.84 158.688zM480.512 320.192c-9.38-9.607-21.268-16.725-34.606-20.295l-0.53-0.121c-29.024-7.232-51.328 4.96-66.72 19.904-16.686 16.845-28.654 38.39-33.743 62.474l-0.145 0.822c-28.224 159.68 10.784 229.664 36.704 261.824 13.348 16.934 33.86 27.706 56.888 27.706 1.016 0 2.027-0.021 3.032-0.062l-0.144 0.005c100.608-5.248 123.2-215.744 123.2-215.744-28.48-74.72-65.184-118.080-83.936-136.512z" />
<glyph unicode="&#xe95b;" d="M992 480c0-265.097-214.903-480-480-480s-480 214.903-480 480c0 265.097 214.903 480 480 480s480-214.903 480-480z" />
<glyph unicode="&#xe95c;" d="M992 480c0-265.097-214.903-480-480-480s-480 214.903-480 480c0 265.097 214.903 480 480 480s480-214.903 480-480z" />
<glyph unicode="&#xe95d;" d="M992 480c0-265.097-214.903-480-480-480s-480 214.903-480 480c0 265.097 214.903 480 480 480s480-214.903 480-480z" />
<glyph unicode="&#xe95e;" d="M976 480c0-256.26-207.74-464-464-464s-464 207.74-464 464c0 256.26 207.74 464 464 464s464-207.74 464-464z" />
<glyph unicode="&#xe95f;" d="M511.072 251.2c-126.624 0-229.632 102.368-229.632 228.16 0 125.824 103.040 228.16 229.632 228.16 126.624 0 229.632-102.336 229.632-228.16 0-125.792-103.008-228.16-229.632-228.16zM511.072 662.848c-101.792 0-184.64-82.304-184.64-183.488 0-101.152 82.848-183.456 184.64-183.456 101.824 0 184.64 82.304 184.64 183.456 0 101.184-82.816 183.488-184.64 183.488zM671.872 740.128c-45.692 28.251-101.091 44.992-160.401 44.992-0.14 0-0.281 0-0.421 0h0.022c-0.038 0-0.083 0-0.128 0-54.732 0-106.145-14.209-150.751-39.141l1.567 0.805-21.888 39.040c49.37 27.71 108.356 44.032 171.154 44.032 0.016 0 0.032 0 0.048 0h-0.002c65.28 0 129.024-17.856 184.352-51.648l-23.552-38.080zM738.912 211.808l-29.088 34.144c66.791 56.241 108.941 139.901 108.96 233.405v0.003h44.992c0-103.232-45.504-200.736-124.864-267.52zM511.072 128.928c-81.824 0-161.568 28.48-224.512 80.16l28.672 34.432c52.876-43.519 121.275-69.909 195.837-69.92h0.003c49.92 0 97.536 11.52 141.504 34.176l20.704-39.68c-47.141-24.697-102.981-39.191-162.205-39.2h-0.003z" />
<glyph unicode="&#xe960;" d="M811.2 562.4c-12.589 44.313-33.468 82.744-61.042 115.329l0.37-0.449 28.8 23.872c30.497-36.028 53.9-79.118 67.409-126.382l0.591-2.418-36.096-9.952zM219.52 288.768c-35.948 53.466-57.376 119.301-57.376 190.141 0 0.159 0 0.317 0 0.476v-0.024c0 94.784 37.76 183.296 106.336 249.248l26.048-26.784c-58.525-55.848-94.913-134.453-94.913-221.557 0-0.319 0-0.638 0.001-0.956v0.049c0-60.768 17.728-119.584 51.2-170.112l-31.296-20.48z" />
<glyph unicode="&#xe961;" d="M992 480c0-265.097-214.903-480-480-480s-480 214.903-480 480c0 265.097 214.903 480 480 480s480-214.903 480-480z" />
<glyph unicode="&#xe962;" d="M992 480c0-265.097-214.903-480-480-480s-480 214.903-480 480c0 265.097 214.903 480 480 480s480-214.903 480-480z" />
<glyph unicode="&#xe963;" d="M976 480c0-256.26-207.74-464-464-464s-464 207.74-464 464c0 256.26 207.74 464 464 464s464-207.74 464-464z" />
<glyph unicode="&#xe964;" d="M328 258.688l73.696 127.552 73.632 127.104 73.216 127.552 12.16 20.224 5.344-20.224 22.464-83.968-25.152-43.584-73.632-127.104-73.216-127.552h88l111.84 193.568 17.984-66.016 34.112-127.552h79.040l-34.112 127.552-34.144 127.104-8.96 32.8 54.784 94.752h-79.936l-2.72 9.44-27.84 104.192-3.584 13.472h-76.8l-1.792-2.688-71.904-124.416-73.6-127.552-73.216-127.104-73.664-127.552z" />
<glyph unicode="&#xe965;" d="M992 480c0-265.097-214.903-480-480-480s-480 214.903-480 480c0 265.097 214.903 480 480 480s480-214.903 480-480z" />
<glyph unicode="&#xe966;" d="M992 480c0-265.097-214.903-480-480-480s-480 214.903-480 480c0 265.097 214.903 480 480 480s480-214.903 480-480z" />
<glyph unicode="&#xe967;" d="M992 480c0-265.097-214.903-480-480-480s-480 214.903-480 480c0 265.097 214.903 480 480 480s480-214.903 480-480z" />
<glyph unicode="&#xe968;" d="M976 480c0-256.26-207.74-464-464-464s-464 207.74-464 464c0 256.26 207.74 464 464 464s464-207.74 464-464z" />
<glyph unicode="&#xe969;" d="M864 479.52v-0.256c-0.114-2.691-0.847-5.187-2.060-7.382l0.044 0.086c-4.48-8.16-111.712-199.968-349.952-199.968s-345.536 191.808-349.984 199.968c-1.18 2.107-1.924 4.602-2.047 7.259l-0.001 0.037v1.44l0.032 0.736c0.203 2.238 0.819 4.291 1.772 6.141l-0.044-0.093 0.064 0.128c0.118 0.25 0.182 0.376 0.248 0.501l-0.056-0.117c4.48 8.192 111.744 200 349.984 200s345.504-191.84 349.952-200l0.192-0.384 0.096-0.16c0.895-1.749 1.5-3.792 1.691-5.952l0.005-0.064v-1.472l0.064-0.448zM828.48 480c-18.016 27.968-85.728 121.376-208.48 158.944 38.783-27.418 66.783-67.858 77.727-114.848l0.257-1.312c8.416-1.92 14.464-9.472 14.624-18.24 0.003-0.125 0.005-0.271 0.005-0.419 0-8.712-5.861-16.055-13.855-18.301l-0.134-0.032c-1.436-0.396-3.084-0.623-4.786-0.623-7.106 0-13.285 3.966-16.446 9.804l-0.049 0.099c-1.446 2.636-2.296 5.775-2.296 9.113 0 5.541 2.344 10.535 6.094 14.045l0.011 0.010c-15.808 71.136-74.304 126.080-146.368 135.648-0.6 0.074-1.141 0.197-1.66 0.369l0.060-0.017c-6.333 0.362-13.743 0.568-21.2 0.568s-14.866-0.206-22.222-0.613l1.022 0.045c-0.459-0.154-1-0.278-1.558-0.348l-0.042-0.004c-29.545-4.075-55.932-15.105-78.25-31.38l0.49 0.34c-1.401-1.006-3.151-1.609-5.042-1.609-3.873 0-7.156 2.53-8.285 6.028l-0.017 0.062c-0.261 0.8-0.412 1.72-0.412 2.676 0 2.938 1.424 5.543 3.62 7.163l0.024 0.017c0.304 0.238 1.065 0.785 1.831 1.326l0.505 0.338c-122.56-37.664-190.144-130.88-208.128-158.848 17.824-27.744 84.48-119.68 205.12-157.92-38.929 28.655-66.484 70.803-75.807 119.43l-0.193 1.21c-7.245 2.824-12.286 9.746-12.286 17.846 0 0.77 0.046 1.53 0.134 2.277l-0.009-0.090c0.96 8.736 7.68 15.68 16.256 16.8 0.712 0.096 1.535 0.15 2.37 0.15 8.014 0 14.856-5.019 17.554-12.085l0.043-0.129c0.799-2.034 1.262-4.389 1.262-6.852 0-6.424-3.15-12.113-7.989-15.605l-0.057-0.039c13.76-70.72 68.736-125.664 138.624-138.56 9.43-0.823 20.404-1.293 31.488-1.293s22.057 0.469 32.902 1.39l-1.414-0.097c27.453 5.273 51.676 16.396 72.263 32.053l-0.423-0.309c1.448 1.134 3.295 1.818 5.302 1.818 1.229 0 2.399-0.257 3.458-0.72l-0.056 0.022c3.141-1.419 5.287-4.525 5.287-8.131 0-2.929-1.415-5.527-3.599-7.148l-0.024-0.017-2.784-2.080c120.896 38.176 187.68 130.304 205.536 158.080zM666.24 479.456c0-86.304-69.184-156.544-154.24-156.544-85.024 0-154.24 70.24-154.24 156.544s69.184 156.512 154.24 156.512c85.056 0 154.24-70.176 154.24-156.512zM648.832 479.456c0 76.544-61.376 138.848-136.832 138.848s-136.864-62.272-136.864-138.88c0-76.544 61.408-138.816 136.864-138.816s136.832 62.272 136.832 138.848zM562.432 522.432c0-16.768-8.288-32.384-22.080-41.6l13.76-84.064c0.139-0.627 0.219-1.347 0.219-2.085 0-5.549-4.499-10.048-10.048-10.048-0.111 0-0.221 0.002-0.331 0.005h-61.424c-0.092-0.003-0.199-0.005-0.307-0.005-5.567 0-10.080 4.513-10.080 10.080 0 0.727 0.077 1.436 0.223 2.119l-0.012-0.066 13.696 84.064c-13.383 9.183-22.048 24.397-22.048 41.636 0 6.84 1.364 13.361 3.835 19.306l-0.123-0.333c8.96 22.048 32 34.592 55.040 29.984 23.072-4.64 39.68-25.152 39.68-48.992zM701.536 457.056c-4.788-41.836-22.284-78.886-48.473-107.949l0.153 0.173c-1.592-1.817-3.917-2.957-6.508-2.957-3.886 0-7.173 2.566-8.259 6.096l-0.016 0.061c-0.26 0.8-0.409 1.722-0.409 2.678 0 2.324 0.885 4.441 2.336 6.034l-0.006-0.007c23.654 26.249 39.55 59.911 43.828 97.108l0.076 0.812c0.508 4.404 4.215 7.792 8.714 7.792 0.324 0 0.643-0.018 0.957-0.052l-0.039 0.003c4.8-0.576 8.192-4.96 7.648-9.792zM385.696 612.832c1.678-1.62 2.72-3.89 2.72-6.402 0-2.352-0.913-4.492-2.404-6.082l0.005 0.005c-23.746-25.366-40.089-57.933-45.42-94.084l-0.116-0.956c-0.649-4.257-4.285-7.481-8.673-7.481-0.44 0-0.872 0.032-1.295 0.095l0.048-0.006c-4.235 0.703-7.424 4.338-7.424 8.719 0 0.458 0.035 0.907 0.102 1.346l-0.006-0.049c6.010 40.823 24.005 76.645 50.243 104.65l-0.099-0.106c1.581 1.692 3.826 2.746 6.317 2.746 2.333 0 4.451-0.925 6.005-2.428l-0.002 0.002z" />
<glyph unicode="&#xe96a;" d="M864 479.52v-0.256c-0.114-2.691-0.847-5.187-2.060-7.382l0.044 0.086c-4.48-8.16-111.712-199.968-349.952-199.968s-345.536 191.808-349.984 199.968c-1.18 2.107-1.924 4.602-2.047 7.259l-0.001 0.037v1.44l0.032 0.736c0.203 2.238 0.819 4.291 1.772 6.141l-0.044-0.093 0.064 0.128c0.118 0.25 0.182 0.376 0.248 0.501l-0.056-0.117c4.48 8.192 111.744 200 349.984 200s345.504-191.84 349.952-200l0.192-0.384 0.096-0.16c0.895-1.749 1.5-3.792 1.691-5.952l0.005-0.064v-1.472l0.064-0.448zM828.48 480c-18.016 27.968-85.728 121.376-208.48 158.944 38.783-27.418 66.783-67.858 77.727-114.848l0.257-1.312c8.416-1.92 14.464-9.472 14.624-18.24 0.003-0.125 0.005-0.271 0.005-0.419 0-8.712-5.861-16.055-13.855-18.301l-0.134-0.032c-1.436-0.396-3.084-0.623-4.786-0.623-7.106 0-13.285 3.966-16.446 9.804l-0.049 0.099c-1.446 2.636-2.296 5.775-2.296 9.113 0 5.541 2.344 10.535 6.094 14.045l0.011 0.010c-15.808 71.136-74.304 126.080-146.368 135.648-0.6 0.074-1.141 0.197-1.66 0.369l0.060-0.017c-6.333 0.362-13.743 0.568-21.2 0.568s-14.866-0.206-22.222-0.613l1.022 0.045c-0.459-0.154-1-0.278-1.558-0.348l-0.042-0.004c-29.545-4.075-55.932-15.105-78.25-31.38l0.49 0.34c-1.401-1.006-3.151-1.609-5.042-1.609-3.873 0-7.156 2.53-8.285 6.028l-0.017 0.062c-0.261 0.8-0.412 1.72-0.412 2.676 0 2.938 1.424 5.543 3.62 7.163l0.024 0.017c0.304 0.238 1.065 0.785 1.831 1.326l0.505 0.338c-122.56-37.664-190.144-130.88-208.128-158.848 17.824-27.744 84.48-119.68 205.12-157.92-38.929 28.655-66.484 70.803-75.807 119.43l-0.193 1.21c-7.245 2.824-12.286 9.746-12.286 17.846 0 0.77 0.046 1.53 0.134 2.277l-0.009-0.090c0.96 8.736 7.68 15.68 16.256 16.8 0.712 0.096 1.535 0.15 2.37 0.15 8.014 0 14.856-5.019 17.554-12.085l0.043-0.129c0.799-2.034 1.262-4.389 1.262-6.852 0-6.424-3.15-12.113-7.989-15.605l-0.057-0.039c13.76-70.72 68.736-125.664 138.624-138.56 9.43-0.823 20.404-1.293 31.488-1.293s22.057 0.469 32.902 1.39l-1.414-0.097c27.453 5.273 51.676 16.396 72.263 32.053l-0.423-0.309c1.448 1.134 3.295 1.818 5.302 1.818 1.229 0 2.399-0.257 3.458-0.72l-0.056 0.022c3.141-1.419 5.287-4.525 5.287-8.131 0-2.929-1.415-5.527-3.599-7.148l-0.024-0.017-2.784-2.080c120.896 38.176 187.68 130.304 205.536 158.080zM666.24 479.456c0-86.304-69.184-156.544-154.24-156.544-85.024 0-154.24 70.24-154.24 156.544s69.184 156.512 154.24 156.512c85.056 0 154.24-70.176 154.24-156.512zM648.832 479.456c0 76.544-61.376 138.848-136.832 138.848s-136.864-62.272-136.864-138.88c0-76.544 61.408-138.816 136.864-138.816s136.832 62.272 136.832 138.848zM562.432 522.432c0-16.768-8.288-32.384-22.080-41.6l13.76-84.064c0.139-0.627 0.219-1.347 0.219-2.085 0-5.549-4.499-10.048-10.048-10.048-0.111 0-0.221 0.002-0.331 0.005h-61.424c-0.092-0.003-0.199-0.005-0.307-0.005-5.567 0-10.080 4.513-10.080 10.080 0 0.727 0.077 1.436 0.223 2.119l-0.012-0.066 13.696 84.064c-13.383 9.183-22.048 24.397-22.048 41.636 0 6.84 1.364 13.361 3.835 19.306l-0.123-0.333c8.96 22.048 32 34.592 55.040 29.984 23.072-4.64 39.68-25.152 39.68-48.992zM701.536 457.056c-4.788-41.836-22.284-78.886-48.473-107.949l0.153 0.173c-1.592-1.817-3.917-2.957-6.508-2.957-3.886 0-7.173 2.566-8.259 6.096l-0.016 0.061c-0.26 0.8-0.409 1.722-0.409 2.678 0 2.324 0.885 4.441 2.336 6.034l-0.006-0.007c23.654 26.249 39.55 59.911 43.828 97.108l0.076 0.812c0.508 4.404 4.215 7.792 8.714 7.792 0.324 0 0.643-0.018 0.957-0.052l-0.039 0.003c4.8-0.576 8.192-4.96 7.648-9.792zM385.696 612.832c1.678-1.62 2.72-3.89 2.72-6.402 0-2.352-0.913-4.492-2.404-6.082l0.005 0.005c-23.746-25.366-40.089-57.933-45.42-94.084l-0.116-0.956c-0.649-4.257-4.285-7.481-8.673-7.481-0.44 0-0.872 0.032-1.295 0.095l0.048-0.006c-4.235 0.703-7.424 4.338-7.424 8.719 0 0.458 0.035 0.907 0.102 1.346l-0.006-0.049c6.010 40.823 24.005 76.645 50.243 104.65l-0.099-0.106c1.581 1.692 3.826 2.746 6.317 2.746 2.333 0 4.451-0.925 6.005-2.428l-0.002 0.002z" />
<glyph unicode="&#xe96b;" d="M992 480c0-265.097-214.903-480-480-480s-480 214.903-480 480c0 265.097 214.903 480 480 480s480-214.903 480-480z" />
<glyph unicode="&#xe96c;" d="M992 480c0-265.097-214.903-480-480-480s-480 214.903-480 480c0 265.097 214.903 480 480 480s480-214.903 480-480z" />
<glyph unicode="&#xe96d;" d="M992 480c0-265.097-214.903-480-480-480s-480 214.903-480 480c0 265.097 214.903 480 480 480s480-214.903 480-480z" />
<glyph unicode="&#xe96e;" d="M976 480c0-256.26-207.74-464-464-464s-464 207.74-464 464c0 256.26 207.74 464 464 464s464-207.74 464-464z" />
<glyph unicode="&#xe96f;" d="M265.696 609.376h3.52c30.816 0.576 57.6 12.224 80.32 34.912 22.080 23.872 33.152 51.232 33.152 82.080 0 15.712 5.664 29.248 17.024 40.608 10.262 10.514 24.574 17.034 40.409 17.034 0.374 0 0.746-0.004 1.118-0.011l-0.056 0.001c15.68 0 29.248-5.664 40.576-17.024 11.36-11.36 17.024-24.896 17.024-40.608 0-15.68-5.376-29.248-16.128-40.608-9.686-10.627-23.431-17.411-38.764-17.886l-0.084-0.002c-33.184 1.184-61.696-10.176-85.568-34.048s-35.2-51.808-34.048-83.84c1.152-33.152 13.12-60.8 35.808-82.912 25.024-22.112 52.96-32.896 83.808-32.32 15.422-0.486 29.166-7.281 38.808-17.876l0.040-0.044c10.752-11.328 16.128-24.576 16.128-39.68 0-16.32-5.664-30.144-17.024-41.504-10.101-10.503-24.273-17.027-39.969-17.027-0.213 0-0.427 0.001-0.64 0.004h0.032c-16.32 0-30.112 5.696-41.472 17.024-10.514 10.262-17.034 24.574-17.034 40.409 0 0.374 0.004 0.746 0.011 1.118l-0.001-0.056c0.009 0.537 0.015 1.171 0.015 1.806 0 30.786-12.712 58.603-33.173 78.489l-0.026 0.025c-20.252 21.446-48.624 35.038-80.175 35.837l-0.145 0.003c-11.040-0.608-20.48 1.152-28.352 5.216-7.846 4.078-14.307 9.843-19.085 16.846l-0.115 0.178c-4.782 6.98-8.416 15.166-10.406 23.975l-0.090 0.473c-1.219 5.064-1.919 10.879-1.919 16.857 0 3.444 0.232 6.834 0.682 10.154l-0.043-0.387c7.552 28.512 26.176 42.784 55.84 42.784zM266.496 434.752c15.136 0 28.384-5.536 39.712-16.608 11.36-11.040 17.312-24.16 17.92-39.296-0.608-32 10.464-59.936 33.152-83.808 22.72-23.264 50.048-34.912 82.080-34.912h2.624c31.424 0 58.464 11.648 81.184 34.912 23.264 23.296 34.624 51.2 34.048 83.84-0.095 32.095-13.839 60.961-35.73 81.113l-0.078 0.071c-22.976 21.856-49.696 32.928-80.224 33.184h-3.584c-15.417 0.477-29.162 7.261-38.809 17.845l-0.039 0.043c-9.999 10.253-16.166 24.283-16.166 39.753 0 0.301 0.002 0.601 0.007 0.9l-0.001-0.045c0 15.68 5.696 29.248 17.024 40.608 9.632 9.6 21.056 15.168 34.24 16.64l3.84 0.384 1.472-0.032c0.539 0.015 1.173 0.024 1.81 0.024 0.973 0 1.941-0.020 2.904-0.060l-0.138 0.005c30.080 0.384 56.256 11.744 78.624 34.112 23.872 23.872 35.52 52.096 34.912 84.704 0 12.8 4.384 24.448 13.12 34.912l0.864 0.864 0.864 0.896c0 0.576 0.32 0.864 0.864 0.864l0.896 0.864v0.864h0.864v0.928c0.576 0 0.864 0.288 0.864 0.864l0.864 0.864h1.76c0 0.608 0.32 0.896 0.864 0.896l0.896 0.864v0.864h1.728c0 0.608 0.32 0.896 0.864 0.896l0.896 0.864 0.864 0.864h0.864c0 0.576 0.32 0.864 0.896 0.864s0.864 0.32 0.864 0.896h0.864l0.864 0.864h1.76v0.864h0.864l0.896 0.896h1.728v0.8h1.76l0.864 0.864h1.76l0.864 0.864h2.624l0.864 0.896h2.624c0.576 0 0.864 0.288 0.864 0.864h18.336l0.448-0.448c0.288-0.288 0.704-0.416 1.28-0.416h1.76l0.448-0.448c0.288-0.288 0.704-0.448 1.28-0.448h1.76l0.864-0.864h1.76l0.864-0.864h1.76c0.576-0.576 1.152-0.864 1.728-0.864l0.896-0.896h1.728v-0.864h0.896l0.864-0.864 0.416-0.448c0.32-0.32 0.736-0.448 1.312-0.448l0.896-0.864h0.864c0-0.576 0.576-0.864 1.728-0.864l0.896-0.864v-0.896h0.864c0-0.576 0.576-0.864 1.76-0.864 0-0.576 0.288-0.864 0.864-0.864v-0.896h0.864l0.896-0.864c0.576-0.576 1.152-0.864 1.728-0.864l0.864-0.896c0-0.576 0.32-0.864 0.896-0.864v-0.864h0.864c0-0.576 0.16-1.024 0.448-1.28l0.416-0.48c0-0.576 0.32-0.864 0.896-0.864l0.864-0.864c0-0.576 0.128-1.024 0.416-1.312l1.312-1.312 0.896-0.864v-1.76l0.864-0.864v-0.832h0.864c0-0.608 0.16-1.024 0.448-1.312l0.416-0.448c0-0.576 0.32-0.864 0.896-0.864v-0.896c0-0.576 0.128-0.992 0.416-1.28l1.312-1.312c0-1.184 0.32-1.76 0.896-1.76v-0.864c0-0.608 0.128-1.024 0.416-1.312l0.448-0.448v-1.728l0.864-0.896v-2.624c0.576-0.576 0.864-1.152 0.864-1.728v-2.624c0.608-0.576 0.896-1.152 0.896-1.76v-6.944c0-30.848 11.040-58.208 33.152-82.080 22.72-22.688 49.792-34.336 81.216-34.912 15.68 0.576 29.664-4.8 41.92-16.16 12.192-11.328 18.304-25.152 18.304-41.472 0-16.288-5.664-30.080-17.024-41.472-10.101-10.503-24.273-17.028-39.969-17.028-0.225 0-0.449 0.001-0.673 0.004h0.034c-0.245-0.004-0.534-0.006-0.823-0.006-15.47 0-29.5 6.167-39.765 16.177l0.012-0.011c-10.761 9.941-17.578 24.014-17.919 39.683l-0.001 0.061c0.608 32-11.040 60.224-34.88 84.672-23.296 23.296-51.52 34.624-84.704 34.048-31.692-0.793-60.064-14.374-80.269-35.754l-0.051-0.054c-20.487-19.906-33.199-47.719-33.199-78.5 0-0.64 0.005-1.278 0.016-1.915l-0.001 0.096-0.032-2.688c0.64-29.76 11.68-56.224 33.152-79.36 22.688-22.72 49.76-34.368 81.184-34.944 20.928 1.152 36.96-6.4 48-22.72 11.072-15.68 14.56-32.32 10.496-49.76-8.16-29.12-26.784-43.648-55.872-43.648h-2.624c-32.608-1.152-59.68-13.12-81.184-35.808-22.144-22.112-33.184-49.184-33.184-81.184 0-15.712-5.664-29.248-17.024-40.608-10.101-10.503-24.273-17.028-39.969-17.028-0.225 0-0.449 0.001-0.673 0.004h-1.694c-15.712 0-29.12 5.664-40.16 17.024-10.261 10.179-16.613 24.285-16.613 39.874 0 0.258 0.002 0.515 0.005 0.773v-0.039c0 32-11.040 59.072-33.152 81.184-20.256 21.434-48.628 35.015-80.176 35.805l-0.144 0.003c-0.954-0.057-2.070-0.089-3.193-0.089-15.565 0-29.683 6.198-40.020 16.261l0.013-0.012c-11.045 10.269-17.934 24.88-17.934 41.1 0 0.434 0.005 0.868 0.015 1.3l-0.001-0.064c0 15.712 5.664 29.248 17.024 40.608 10.262 10.514 24.574 17.034 40.409 17.034 0.374 0 0.746-0.004 1.118-0.011l-0.056 0.001z" />
<glyph unicode="&#xe970;" d="M265.696 609.376h3.52c30.816 0.576 57.6 12.224 80.32 34.912 22.080 23.872 33.152 51.232 33.152 82.080 0 15.712 5.664 29.248 17.024 40.608 10.262 10.514 24.574 17.034 40.409 17.034 0.374 0 0.746-0.004 1.118-0.011l-0.056 0.001c15.68 0 29.248-5.664 40.576-17.024 11.36-11.36 17.024-24.896 17.024-40.608 0-15.68-5.376-29.248-16.128-40.608-9.686-10.627-23.431-17.411-38.764-17.886l-0.084-0.002c-33.184 1.184-61.696-10.176-85.568-34.048s-35.2-51.808-34.048-83.84c1.152-33.152 13.12-60.8 35.808-82.912 25.024-22.112 52.96-32.896 83.808-32.32 15.422-0.486 29.166-7.281 38.808-17.876l0.040-0.044c10.752-11.328 16.128-24.576 16.128-39.68 0-16.32-5.664-30.144-17.024-41.504-10.101-10.503-24.273-17.027-39.969-17.027-0.213 0-0.427 0.001-0.64 0.004h0.032c-16.32 0-30.112 5.696-41.472 17.024-10.514 10.262-17.034 24.574-17.034 40.409 0 0.374 0.004 0.746 0.011 1.118l-0.001-0.056c0.009 0.537 0.015 1.171 0.015 1.806 0 30.786-12.712 58.603-33.173 78.489l-0.026 0.025c-20.252 21.446-48.624 35.038-80.175 35.837l-0.145 0.003c-11.040-0.608-20.48 1.152-28.352 5.216-7.846 4.078-14.307 9.843-19.085 16.846l-0.115 0.178c-4.782 6.98-8.416 15.166-10.406 23.975l-0.090 0.473c-1.219 5.064-1.919 10.879-1.919 16.857 0 3.444 0.232 6.834 0.682 10.154l-0.043-0.387c7.552 28.512 26.176 42.784 55.84 42.784zM266.496 434.752c15.136 0 28.384-5.536 39.712-16.608 11.36-11.040 17.312-24.16 17.92-39.296-0.608-32 10.464-59.936 33.152-83.808 22.72-23.264 50.048-34.912 82.080-34.912h2.624c31.424 0 58.464 11.648 81.184 34.912 23.264 23.296 34.624 51.2 34.048 83.84-0.095 32.095-13.839 60.961-35.73 81.113l-0.078 0.071c-22.976 21.856-49.696 32.928-80.224 33.184h-3.584c-15.417 0.477-29.162 7.261-38.809 17.845l-0.039 0.043c-9.999 10.253-16.166 24.283-16.166 39.753 0 0.301 0.002 0.601 0.007 0.9l-0.001-0.045c0 15.68 5.696 29.248 17.024 40.608 9.632 9.6 21.056 15.168 34.24 16.64l3.84 0.384 1.472-0.032c0.539 0.015 1.173 0.024 1.81 0.024 0.973 0 1.941-0.020 2.904-0.060l-0.138 0.005c30.080 0.384 56.256 11.744 78.624 34.112 23.872 23.872 35.52 52.096 34.912 84.704 0 12.8 4.384 24.448 13.12 34.912l0.864 0.864 0.864 0.896c0 0.576 0.32 0.864 0.864 0.864l0.896 0.864v0.864h0.864v0.928c0.576 0 0.864 0.288 0.864 0.864l0.864 0.864h1.76c0 0.608 0.32 0.896 0.864 0.896l0.896 0.864v0.864h1.728c0 0.608 0.32 0.896 0.864 0.896l0.896 0.864 0.864 0.864h0.864c0 0.576 0.32 0.864 0.896 0.864s0.864 0.32 0.864 0.896h0.864l0.864 0.864h1.76v0.864h0.864l0.896 0.896h1.728v0.8h1.76l0.864 0.864h1.76l0.864 0.864h2.624l0.864 0.896h2.624c0.576 0 0.864 0.288 0.864 0.864h18.336l0.448-0.448c0.288-0.288 0.704-0.416 1.28-0.416h1.76l0.448-0.448c0.288-0.288 0.704-0.448 1.28-0.448h1.76l0.864-0.864h1.76l0.864-0.864h1.76c0.576-0.576 1.152-0.864 1.728-0.864l0.896-0.896h1.728v-0.864h0.896l0.864-0.864 0.416-0.448c0.32-0.32 0.736-0.448 1.312-0.448l0.896-0.864h0.864c0-0.576 0.576-0.864 1.728-0.864l0.896-0.864v-0.896h0.864c0-0.576 0.576-0.864 1.76-0.864 0-0.576 0.288-0.864 0.864-0.864v-0.896h0.864l0.896-0.864c0.576-0.576 1.152-0.864 1.728-0.864l0.864-0.896c0-0.576 0.32-0.864 0.896-0.864v-0.864h0.864c0-0.576 0.16-1.024 0.448-1.28l0.416-0.48c0-0.576 0.32-0.864 0.896-0.864l0.864-0.864c0-0.576 0.128-1.024 0.416-1.312l1.312-1.312 0.896-0.864v-1.76l0.864-0.864v-0.832h0.864c0-0.608 0.16-1.024 0.448-1.312l0.416-0.448c0-0.576 0.32-0.864 0.896-0.864v-0.896c0-0.576 0.128-0.992 0.416-1.28l1.312-1.312c0-1.184 0.32-1.76 0.896-1.76v-0.864c0-0.608 0.128-1.024 0.416-1.312l0.448-0.448v-1.728l0.864-0.896v-2.624c0.576-0.576 0.864-1.152 0.864-1.728v-2.624c0.608-0.576 0.896-1.152 0.896-1.76v-6.944c0-30.848 11.040-58.208 33.152-82.080 22.72-22.688 49.792-34.336 81.216-34.912 15.68 0.576 29.664-4.8 41.92-16.16 12.192-11.328 18.304-25.152 18.304-41.472 0-16.288-5.664-30.080-17.024-41.472-10.101-10.503-24.273-17.028-39.969-17.028-0.225 0-0.449 0.001-0.673 0.004h0.034c-0.245-0.004-0.534-0.006-0.823-0.006-15.47 0-29.5 6.167-39.765 16.177l0.012-0.011c-10.761 9.941-17.578 24.014-17.919 39.683l-0.001 0.061c0.608 32-11.040 60.224-34.88 84.672-23.296 23.296-51.52 34.624-84.704 34.048-31.692-0.793-60.064-14.374-80.269-35.754l-0.051-0.054c-20.487-19.906-33.199-47.719-33.199-78.5 0-0.64 0.005-1.278 0.016-1.915l-0.001 0.096-0.032-2.688c0.64-29.76 11.68-56.224 33.152-79.36 22.688-22.72 49.76-34.368 81.184-34.944 20.928 1.152 36.96-6.4 48-22.72 11.072-15.68 14.56-32.32 10.496-49.76-8.16-29.12-26.784-43.648-55.872-43.648h-2.624c-32.608-1.152-59.68-13.12-81.184-35.808-22.144-22.112-33.184-49.184-33.184-81.184 0-15.712-5.664-29.248-17.024-40.608-10.101-10.503-24.273-17.028-39.969-17.028-0.225 0-0.449 0.001-0.673 0.004h-1.694c-15.712 0-29.12 5.664-40.16 17.024-10.261 10.179-16.613 24.285-16.613 39.874 0 0.258 0.002 0.515 0.005 0.773v-0.039c0 32-11.040 59.072-33.152 81.184-20.256 21.434-48.628 35.015-80.176 35.805l-0.144 0.003c-0.954-0.057-2.070-0.089-3.193-0.089-15.565 0-29.683 6.198-40.020 16.261l0.013-0.012c-11.045 10.269-17.934 24.88-17.934 41.1 0 0.434 0.005 0.868 0.015 1.3l-0.001-0.064c0 15.712 5.664 29.248 17.024 40.608 10.262 10.514 24.574 17.034 40.409 17.034 0.374 0 0.746-0.004 1.118-0.011l-0.056 0.001z" />
<glyph unicode="&#xe971;" d="M992 480c0-265.097-214.903-480-480-480s-480 214.903-480 480c0 265.097 214.903 480 480 480s480-214.903 480-480z" />
<glyph unicode="&#xe972;" d="M992 480c0-265.097-214.903-480-480-480s-480 214.903-480 480c0 265.097 214.903 480 480 480s480-214.903 480-480z" />
<glyph unicode="&#xe973;" d="M976 480c0-256.26-207.74-464-464-464s-464 207.74-464 464c0 256.26 207.74 464 464 464s464-207.74 464-464z" />
<glyph unicode="&#xe974;" d="M240.352 248c-0.225 3.56-0.353 7.72-0.353 11.91 0 3.791 0.105 7.558 0.312 11.298l-0.023-0.519c2.56 0.768 5.184 1.28 7.872 1.6 7.744 1.312 15.392 3.104 22.944 5.344 2.048 0.64 4.096 1.344 6.080 2.112 9.92 3.808 18.688 10.080 25.344 18.208 4.608 5.664 8.64 11.776 12.096 18.24 4.864 8.832 9.184 17.952 12.992 27.296 7.712 18.816 15.392 37.696 23.040 56.608l78.688 194.976c24.864 61.792 49.28 123.744 73.184 185.888 0.48 1.28 1.024 2.496 1.568 3.776 8.832 2.432 17.536 4.928 26.56 7.264 0.512-1.28 1.024-2.368 1.44-3.52l30.4-83.232c101.335-297.43 136.801-391.226 172.731-484.792l-67.995 201.464c9.728-25.76 19.52-51.52 29.408-77.184 3.904-10.496 8.48-20.736 13.728-30.656 2.718-4.982 5.199-9.028 7.849-12.95l-0.361 0.566c8.224-12.544 20.992-21.6 35.744-25.312 7.936-2.080 16-3.648 24.128-4.704l5.792-0.832c0.832-2.528 0.32-4.96 0.384-7.36 0.096-2.432 0-5.12 0-7.712 0.096-2.496 0.032-4.96-0.128-7.456-0.832-0.128-1.472-0.256-2.112-0.32h-203.616c-0.2 0.398-0.356 0.86-0.443 1.345l-0.005 0.031v20.448c0.059 0.338 0.148 0.639 0.266 0.924l-0.010-0.028c1.475 0.428 3.226 0.767 5.023 0.949l0.129 0.011c8.384 1.056 16.64 2.656 24.832 4.736 3.264 0.896 6.496 2.048 9.696 3.2 1.6 0.64 3.136 1.376 4.608 2.24 8.032 4.416 11.264 11.328 10.56 20.16-0.4 4.399-1.157 8.427-2.258 12.31l0.114-0.47c-1.6 6.080-3.84 11.936-5.952 17.824 62.183-205.585 19.761-90.882-22.219 24.033l-102.933 322.207c-0.448 1.28-0.576 2.656-1.888 3.776-0.416-0.256-0.96-0.448-1.28-0.8-0.312-0.533-0.574-1.15-0.755-1.801l-0.013-0.055c-20.16-56.832-41.632-113.216-63.040-169.6-15.776-41.792-31.584-83.52-46.304-125.664-0.154 1.967-5.978-14.931-11.636-31.905l-5.484-18.975c-1.963-5.629-3.636-12.349-4.714-19.265l-0.086-0.671c-0.447-2.453-0.703-5.275-0.703-8.158 0-1.94 0.116-3.854 0.341-5.733l-0.022 0.227c0.744-6.179 4.032-11.469 8.768-14.868l0.064-0.044c3.264-2.272 6.848-4.096 10.624-5.344 6.016-2.080 12.224-3.648 18.528-4.672 6.944-1.248 13.952-2.208 20.928-3.296l1.504-0.256c0.157-0.449 0.27-0.97 0.318-1.511l0.002-0.025v-19.776c-0.054-0.432-0.144-0.822-0.269-1.196l0.013 0.044c-0.508-0.122-1.15-0.234-1.803-0.312l-0.085-0.008-182.112-0.032z" />
<glyph unicode="&#xe975;" d="M240.352 248c-0.225 3.56-0.353 7.72-0.353 11.91 0 3.791 0.105 7.558 0.312 11.298l-0.023-0.519c2.56 0.768 5.184 1.28 7.872 1.6 7.744 1.312 15.392 3.104 22.944 5.344 2.048 0.64 4.096 1.344 6.080 2.112 9.92 3.808 18.688 10.080 25.344 18.208 4.608 5.664 8.64 11.776 12.096 18.24 4.864 8.832 9.184 17.952 12.992 27.296 7.712 18.816 15.392 37.696 23.040 56.608l78.688 194.976c24.864 61.792 49.28 123.744 73.184 185.888 0.48 1.28 1.024 2.496 1.568 3.776 8.832 2.432 17.536 4.928 26.56 7.264 0.512-1.28 1.024-2.368 1.44-3.52l30.4-83.232c101.335-297.43 136.801-391.226 172.731-484.792l-67.995 201.464c9.728-25.76 19.52-51.52 29.408-77.184 3.904-10.496 8.48-20.736 13.728-30.656 2.718-4.982 5.199-9.028 7.849-12.95l-0.361 0.566c8.224-12.544 20.992-21.6 35.744-25.312 7.936-2.080 16-3.648 24.128-4.704l5.792-0.832c0.832-2.528 0.32-4.96 0.384-7.36 0.096-2.432 0-5.12 0-7.712 0.096-2.496 0.032-4.96-0.128-7.456-0.832-0.128-1.472-0.256-2.112-0.32h-203.616c-0.2 0.398-0.356 0.86-0.443 1.345l-0.005 0.031v20.448c0.059 0.338 0.148 0.639 0.266 0.924l-0.010-0.028c1.475 0.428 3.226 0.767 5.023 0.949l0.129 0.011c8.384 1.056 16.64 2.656 24.832 4.736 3.264 0.896 6.496 2.048 9.696 3.2 1.6 0.64 3.136 1.376 4.608 2.24 8.032 4.416 11.264 11.328 10.56 20.16-0.4 4.399-1.157 8.427-2.258 12.31l0.114-0.47c-1.6 6.080-3.84 11.936-5.952 17.824 62.183-205.585 19.761-90.882-22.219 24.033l-102.933 322.207c-0.448 1.28-0.576 2.656-1.888 3.776-0.416-0.256-0.96-0.448-1.28-0.8-0.312-0.533-0.574-1.15-0.755-1.801l-0.013-0.055c-20.16-56.832-41.632-113.216-63.040-169.6-15.776-41.792-31.584-83.52-46.304-125.664-0.154 1.967-5.978-14.931-11.636-31.905l-5.484-18.975c-1.963-5.629-3.636-12.349-4.714-19.265l-0.086-0.671c-0.447-2.453-0.703-5.275-0.703-8.158 0-1.94 0.116-3.854 0.341-5.733l-0.022 0.227c0.744-6.179 4.032-11.469 8.768-14.868l0.064-0.044c3.264-2.272 6.848-4.096 10.624-5.344 6.016-2.080 12.224-3.648 18.528-4.672 6.944-1.248 13.952-2.208 20.928-3.296l1.504-0.256c0.157-0.449 0.27-0.97 0.318-1.511l0.002-0.025v-19.776c-0.054-0.432-0.144-0.822-0.269-1.196l0.013 0.044c-0.508-0.122-1.15-0.234-1.803-0.312l-0.085-0.008-182.112-0.032z" />
<glyph unicode="&#xe976;" d="M992 480c0-265.097-214.903-480-480-480s-480 214.903-480 480c0 265.097 214.903 480 480 480s480-214.903 480-480z" />
<glyph unicode="&#xe977;" d="M992 480c0-265.097-214.903-480-480-480s-480 214.903-480 480c0 265.097 214.903 480 480 480s480-214.903 480-480z" />
<glyph unicode="&#xe978;" d="M992 480c0-265.097-214.903-480-480-480s-480 214.903-480 480c0 265.097 214.903 480 480 480s480-214.903 480-480z" />
<glyph unicode="&#xe979;" d="M976 480c0-256.26-207.74-464-464-464s-464 207.74-464 464c0 256.26 207.74 464 464 464s464-207.74 464-464z" />
<glyph unicode="&#xe97a;" d="M554.048 790.4l211.84-107.2c30.72-16 50.112-46.4 50.112-81.6v-49.6h-77.632v49.6c0 4.8-3.2 9.6-8.064 12.8l-211.84 107.2c-3.2 1.6-8.096 1.6-12.928 0l-211.84-107.2c-4.832-1.6-8.064-6.4-8.064-12.8v-49.6h-77.632v49.6c0 33.6 19.392 65.6 50.112 81.6l211.84 107.2c25.888 12.8 56.608 12.8 84.096 0zM578.304 483.2c0 36.8-30.72 65.6-66.304 65.6-37.184 0-66.304-28.8-66.304-65.6s30.72-65.6 66.304-65.6 66.304 28.8 66.304 65.6zM728.704 345.6c4.8 1.6 8.064 6.4 8.064 12.8v49.6h77.6v-49.6c0-33.6-19.392-65.6-50.112-81.6l-211.84-107.2c-12.928-6.4-27.488-9.6-42.048-9.6-14.528 0-29.12 3.2-42.016 9.6l-210.24 107.2c-30.72 16-50.112 46.4-50.112 81.6v49.6h77.632v-49.6c0-4.8 3.2-9.6 8.064-12.8l179.52-89.6v89.6c-61.472 17.6-105.12 72-105.12 137.6 0 78.4 64.64 144 145.536 144 79.232 0 145.504-64 145.504-144 0-65.6-45.248-121.6-105.088-137.6v-89.6l174.624 89.6z" />
<glyph unicode="&#xe97b;" d="M992 480c0-265.097-214.903-480-480-480s-480 214.903-480 480c0 265.097 214.903 480 480 480s480-214.903 480-480z" />
<glyph unicode="&#xe97c;" d="M992 480c0-265.097-214.903-480-480-480s-480 214.903-480 480c0 265.097 214.903 480 480 480s480-214.903 480-480z" />
<glyph unicode="&#xe97d;" d="M992 480c0-265.097-214.903-480-480-480s-480 214.903-480 480c0 265.097 214.903 480 480 480s480-214.903 480-480z" />
<glyph unicode="&#xe97e;" d="M976 480c0-256.26-207.74-464-464-464s-464 207.74-464 464c0 256.26 207.74 464 464 464s464-207.74 464-464z" />
<glyph unicode="&#xe97f;" d="M254.88 428.864c-0.198 3.020-0.314 6.562-0.32 10.13v0.014c0 112.544 87.744 204.032 197.504 207.936 2.624 0 5.44 0 8.064-0.224l-26.176 26.016s105.376 17.6 240.672-63.744c0 0 1.984-4.128 0-16.256 0 0 63.744-27.328 69.184-80.448s-28.352-83.488-55.648-87.808c0 0 14.176 21.888-7.616 33.6-4.003 2.206-8.775 3.504-13.849 3.504-0.588 0-1.172-0.017-1.751-0.052l0.080 0.004c-41.664 0-46.464-47.264-46.464-47.264-0.448-2.368-0.448-4.768-0.448-7.136 0 0-6.080-60.128 93.504-67.2 21.378 27.329 41.156 58.081 58.002 90.598l1.55 3.29c24.741 47.354 45.143 102.303 58.39 159.982l0.906 4.69c-58.016 47.552-126.464 88.32-200 122.464-27.584 12.8-54.304 23.904-79.616 33.44-6.824 2.925-19.771 7.597-32.856 11.969l-6.184 1.791c-10.304-3.328-23.36-7.872-39.040-13.76-25.28-9.504-52.032-20.64-79.584-33.44-73.504-34.112-141.984-74.88-199.968-122.496 3.136-15.104 7.904-33.952 14.752-55.84 13.841-44.057 29.749-81.713 48.719-117.497l-1.807 3.737zM864 611.136l-1.6-8.96c-0.832-6.944-6.496-31.84-13.472-55.68-14.397-48.77-31.469-90.677-52.112-130.431l1.904 4.031c-28.992-56.512-64.192-105.792-104.576-146.368-49.824-49.952-107.488-86.848-171.744-109.824l-3.584-1.28-6.816-2.624-6.752 2.368-3.776 1.312c-67.284 24.578-124.665 62.058-171.654 109.797l-0.058 0.059c-40.576 40.96-75.744 90.144-104.576 146.368-24.941 47.819-45.721 103.337-59.496 161.565l-0.984 4.931c-1.6 7.168-3.36 16.128-3.040 14.848l-1.664 9.216 3.84 3.2 2.816 2.4c59.008 49.664 128.8 92.256 204.16 128.064 35.296 17.566 78.544 35.401 123.078 50.445l7.706 2.259 10.176 3.168 6.944-2.080 3.456-1.12c34.56-11.104 80.48-28.8 130.688-52.672 75.264-35.744 144.96-78.272 203.904-127.84l7.232-5.12zM620.736 587.968c1.76 0.864 7.424 3.68 13.984 10.4 13.088-1.728 25.952-5.856 25.952-5.856-23.776 14.304-56.32 22.784-92.32 22.56 0 0 13.76-19.52 51.936-27.52l0.448 0.416z" />
<glyph unicode="&#xe980;" d="M254.88 428.864c-0.198 3.020-0.314 6.562-0.32 10.13v0.014c0 112.544 87.744 204.032 197.504 207.936 2.624 0 5.44 0 8.064-0.224l-26.176 26.016s105.376 17.6 240.672-63.744c0 0 1.984-4.128 0-16.256 0 0 63.744-27.328 69.184-80.448s-28.352-83.488-55.648-87.808c0 0 14.176 21.888-7.616 33.6-4.003 2.206-8.775 3.504-13.849 3.504-0.588 0-1.172-0.017-1.751-0.052l0.080 0.004c-41.664 0-46.464-47.264-46.464-47.264-0.448-2.368-0.448-4.768-0.448-7.136 0 0-6.080-60.128 93.504-67.2 21.378 27.329 41.156 58.081 58.002 90.598l1.55 3.29c24.741 47.354 45.143 102.303 58.39 159.982l0.906 4.69c-58.016 47.552-126.464 88.32-200 122.464-27.584 12.8-54.304 23.904-79.616 33.44-6.824 2.925-19.771 7.597-32.856 11.969l-6.184 1.791c-10.304-3.328-23.36-7.872-39.040-13.76-25.28-9.504-52.032-20.64-79.584-33.44-73.504-34.112-141.984-74.88-199.968-122.496 3.136-15.104 7.904-33.952 14.752-55.84 13.841-44.057 29.749-81.713 48.719-117.497l-1.807 3.737zM864 611.136l-1.6-8.96c-0.832-6.944-6.496-31.84-13.472-55.68-14.397-48.77-31.469-90.677-52.112-130.431l1.904 4.031c-28.992-56.512-64.192-105.792-104.576-146.368-49.824-49.952-107.488-86.848-171.744-109.824l-3.584-1.28-6.816-2.624-6.752 2.368-3.776 1.312c-67.284 24.578-124.665 62.058-171.654 109.797l-0.058 0.059c-40.576 40.96-75.744 90.144-104.576 146.368-24.941 47.819-45.721 103.337-59.496 161.565l-0.984 4.931c-1.6 7.168-3.36 16.128-3.040 14.848l-1.664 9.216 3.84 3.2 2.816 2.4c59.008 49.664 128.8 92.256 204.16 128.064 35.296 17.566 78.544 35.401 123.078 50.445l7.706 2.259 10.176 3.168 6.944-2.080 3.456-1.12c34.56-11.104 80.48-28.8 130.688-52.672 75.264-35.744 144.96-78.272 203.904-127.84l7.232-5.12zM620.736 587.968c1.76 0.864 7.424 3.68 13.984 10.4 13.088-1.728 25.952-5.856 25.952-5.856-23.776 14.304-56.32 22.784-92.32 22.56 0 0 13.76-19.52 51.936-27.52l0.448 0.416z" />
<glyph unicode="&#xe981;" d="M992 480c0-265.097-214.903-480-480-480s-480 214.903-480 480c0 265.097 214.903 480 480 480s480-214.903 480-480z" />
<glyph unicode="&#xe982;" d="M992 480c0-265.097-214.903-480-480-480s-480 214.903-480 480c0 265.097 214.903 480 480 480s480-214.903 480-480z" />
<glyph unicode="&#xe983;" d="M992 480c0-265.097-214.903-480-480-480s-480 214.903-480 480c0 265.097 214.903 480 480 480s480-214.903 480-480z" />
<glyph unicode="&#xe984;" d="M976 480c0-256.26-207.74-464-464-464s-464 207.74-464 464c0 256.26 207.74 464 464 464s464-207.74 464-464z" />
<glyph unicode="&#xe985;" d="M192 376l320 408 320-408v-136l-320 408-320-408v136zM528 336c-44.183 0-80 35.817-80 80s35.817 80 80 80v0c44.183 0 80-35.817 80-80s-35.817-80-80-80v0z" />
<glyph unicode="&#xe986;" d="M192 376l320 408 320-408v-136l-320 408-320-408v136zM528 336c-44.183 0-80 35.817-80 80s35.817 80 80 80v0c44.183 0 80-35.817 80-80s-35.817-80-80-80v0z" />
<glyph unicode="&#xe987;" d="M992 480c0-265.097-214.903-480-480-480s-480 214.903-480 480c0 265.097 214.903 480 480 480s480-214.903 480-480z" />
<glyph unicode="&#xe988;" d="M992 480c0-265.097-214.903-480-480-480s-480 214.903-480 480c0 265.097 214.903 480 480 480s480-214.903 480-480z" />
<glyph unicode="&#xe989;" d="M992 480c0-265.097-214.903-480-480-480s-480 214.903-480 480c0 265.097 214.903 480 480 480s480-214.903 480-480z" />
<glyph unicode="&#xe98a;" d="M976 480c0-256.26-207.74-464-464-464s-464 207.74-464 464c0 256.26 207.74 464 464 464s464-207.74 464-464z" />
<glyph unicode="&#xe98b;" d="M437.12 435.648l76.352 227.584 77.76-227.584h-154.112zM760.704 291.744l-63.136 169.888h37.696c0.010 0 0.023 0 0.035 0 14.858 0 26.931 11.928 27.165 26.73v0.022c-0.010 7.036-2.911 13.393-7.579 17.947l-0.005 0.005c-4.715 4.611-11.173 7.456-18.296 7.456-0.014 0-0.028 0-0.042 0h-58.878l-9.44 26.432h67.040c0.072-0.001 0.158-0.001 0.243-0.001 14.468 0 26.263 11.444 26.827 25.774l0.002 0.051c0 0.019 0 0.042 0 0.065 0 7.374-3.038 14.038-7.931 18.81l-0.005 0.005c-4.931 4.81-11.679 7.776-19.119 7.776-0.051 0-0.102 0-0.152 0h-87.032l-47.136 126.976c-7.422 18.734-18.99 34.457-33.634 46.599l-0.19 0.153c-13.572 10.963-31.036 17.599-50.050 17.599-1.114 0-2.222-0.023-3.324-0.068l0.158 0.005c-0.791 0.027-1.721 0.043-2.655 0.043-19.26 0-36.973-6.621-50.989-17.71l0.172 0.131c-14.832-12.308-26.423-28.011-33.644-45.944l-0.276-0.776-49.376-128.128h-86.528c-0.068 0.001-0.147 0.001-0.227 0.001-14.169 0-25.683-11.369-25.916-25.483v-0.022c0-14.656 12.128-26.528 27.104-26.528h65.696l-10.112-25.728h-58.88c-0.086 0.001-0.188 0.002-0.29 0.002-14.197 0-25.725-11.428-25.886-25.586v-0.015c0-14.528 11.968-26.272 26.752-26.336h37.792l-64.192-170.112c-3.936-9.6-6.112-19.776-6.464-30.112 0.64-14.496 7.104-28.16 17.92-38.080 11.297-9.613 26.057-15.46 42.183-15.46 0.245 0 0.49 0.001 0.734 0.004h-0.037c1.038-0.067 2.25-0.105 3.471-0.105 26.208 0 48.328 17.503 55.307 41.458l0.102 0.407 24.832 72.608h228.608l24.864-74.336c7.878-23.316 29.555-39.804 55.084-39.804 1.336 0 2.661 0.045 3.974 0.134l-0.178-0.010c9.92-0.224 19.68 2.24 28.288 7.040 7.456 5.44 14.080 11.84 19.648 19.136 4.527 7.484 7.207 16.525 7.207 26.192 0 0.287-0.002 0.573-0.007 0.859l0.001-0.043c-1.769 11.285-4.31 21.278-7.668 30.886l0.372-1.222v0.448z" />
<glyph unicode="&#xe98c;" d="M437.12 435.648l76.352 227.584 77.76-227.584h-154.112zM760.704 291.744l-63.136 169.888h37.696c0.010 0 0.023 0 0.035 0 14.858 0 26.931 11.928 27.165 26.73v0.022c-0.010 7.036-2.911 13.393-7.579 17.947l-0.005 0.005c-4.715 4.611-11.173 7.456-18.296 7.456-0.014 0-0.028 0-0.042 0h-58.878l-9.44 26.432h67.040c0.072-0.001 0.158-0.001 0.243-0.001 14.468 0 26.263 11.444 26.827 25.774l0.002 0.051c0 0.019 0 0.042 0 0.065 0 7.374-3.038 14.038-7.931 18.81l-0.005 0.005c-4.931 4.81-11.679 7.776-19.119 7.776-0.051 0-0.102 0-0.152 0h-87.032l-47.136 126.976c-7.422 18.734-18.99 34.457-33.634 46.599l-0.19 0.153c-13.572 10.963-31.036 17.599-50.050 17.599-1.114 0-2.222-0.023-3.324-0.068l0.158 0.005c-0.791 0.027-1.721 0.043-2.655 0.043-19.26 0-36.973-6.621-50.989-17.71l0.172 0.131c-14.832-12.308-26.423-28.011-33.644-45.944l-0.276-0.776-49.376-128.128h-86.528c-0.068 0.001-0.147 0.001-0.227 0.001-14.169 0-25.683-11.369-25.916-25.483v-0.022c0-14.656 12.128-26.528 27.104-26.528h65.696l-10.112-25.728h-58.88c-0.086 0.001-0.188 0.002-0.29 0.002-14.197 0-25.725-11.428-25.886-25.586v-0.015c0-14.528 11.968-26.272 26.752-26.336h37.792l-64.192-170.112c-3.936-9.6-6.112-19.776-6.464-30.112 0.64-14.496 7.104-28.16 17.92-38.080 11.297-9.613 26.057-15.46 42.183-15.46 0.245 0 0.49 0.001 0.734 0.004h-0.037c1.038-0.067 2.25-0.105 3.471-0.105 26.208 0 48.328 17.503 55.307 41.458l0.102 0.407 24.832 72.608h228.608l24.864-74.336c7.878-23.316 29.555-39.804 55.084-39.804 1.336 0 2.661 0.045 3.974 0.134l-0.178-0.010c9.92-0.224 19.68 2.24 28.288 7.040 7.456 5.44 14.080 11.84 19.648 19.136 4.527 7.484 7.207 16.525 7.207 26.192 0 0.287-0.002 0.573-0.007 0.859l0.001-0.043c-1.769 11.285-4.31 21.278-7.668 30.886l0.372-1.222v0.448z" />
<glyph unicode="&#xe98d;" d="M992 480c0-265.097-214.903-480-480-480s-480 214.903-480 480c0 265.097 214.903 480 480 480s480-214.903 480-480z" />
<glyph unicode="&#xe98e;" d="M992 480c0-265.097-214.903-480-480-480s-480 214.903-480 480c0 265.097 214.903 480 480 480s480-214.903 480-480z" />
<glyph unicode="&#xe98f;" d="M992 480c0-265.097-214.903-480-480-480s-480 214.903-480 480c0 265.097 214.903 480 480 480s480-214.903 480-480z" />
<glyph unicode="&#xe990;" d="M976 480c0-256.26-207.74-464-464-464s-464 207.74-464 464c0 256.26 207.74 464 464 464s464-207.74 464-464z" />
<glyph unicode="&#xe991;" d="M508.256 441.92l56.608-73.984-164.864-111.936 108.256 185.92zM512 800l87.264-143.168-232.704-400.832h-174.56l320 544zM512 485.056l116.352 85.888 203.648-314.944h-145.44l-174.56 229.056z" />
<glyph unicode="&#xe992;" d="M508.256 441.92l56.608-73.984-164.864-111.936 108.256 185.92zM512 800l87.264-143.168-232.704-400.832h-174.56l320 544zM512 485.056l116.352 85.888 203.648-314.944h-145.44l-174.56 229.056z" />
<glyph unicode="&#xe993;" d="M992 480c0-265.097-214.903-480-480-480s-480 214.903-480 480c0 265.097 214.903 480 480 480s480-214.903 480-480z" />
<glyph unicode="&#xe994;" d="M992 480c0-265.097-214.903-480-480-480s-480 214.903-480 480c0 265.097 214.903 480 480 480s480-214.903 480-480z" />
<glyph unicode="&#xe995;" d="M992 480c0-265.097-214.903-480-480-480s-480 214.903-480 480c0 265.097 214.903 480 480 480s480-214.903 480-480z" />
<glyph unicode="&#xe996;" d="M976 480c0-256.26-207.74-464-464-464s-464 207.74-464 464c0 256.26 207.74 464 464 464s464-207.74 464-464z" />
<glyph unicode="&#xe997;" d="M358.144 795.456c45.338 22.968 98.846 36.422 155.496 36.422 193.379 0 350.144-156.765 350.144-350.144 0-88.014-32.474-168.444-86.094-229.96l0.357 0.419c-17.44 38.016-30.816 77.888-45.76 117.12l-90.368 236.768c-8.704 24-23.36 47.040-46.080 59.488-22.605 11.141-49.208 17.658-77.334 17.658-8.876 0-17.601-0.649-26.13-1.902l0.968 0.117c-28.032-3.104-57.312-12.768-76.32-34.88-18.080-20.864-26.176-47.68-36.448-72.896l-65.12-165.12c-21.76-52.32-40.16-106.496-63.84-158.528-33.050 35.602-58.273 78.951-72.629 126.991l-0.587 2.289c-9.674 30.589-15.249 65.768-15.249 102.25 0 137.040 78.662 255.707 193.296 313.312l2.017 0.918-0.32-0.32z" />
<glyph unicode="&#xe998;" d="M488.352 556.864c6.24 18.688 31.168 24.896 47.36 14.304 8.704-6.528 11.84-17.76 15.872-27.712 40.512-105.92 80.384-212.448 120.576-318.656 5.28-15.264 13.056-29.92 16.192-45.792-2.56-2.72-5.504-5.024-8.736-6.88-47.917-26.134-104.952-41.502-165.576-41.502-44.136 0-86.369 8.145-125.279 23.014l2.407-0.808c-17.44 7.168-35.52 13.376-50.784 24.32 1.568 14.304 8.736 27.072 14.016 40.16 44.864 113.088 88.8 226.464 133.952 339.52z" />
<glyph unicode="&#xe999;" d="M992 480c0-265.097-214.903-480-480-480s-480 214.903-480 480c0 265.097 214.903 480 480 480s480-214.903 480-480z" />
<glyph unicode="&#xe99a;" d="M992 480c0-265.097-214.903-480-480-480s-480 214.903-480 480c0 265.097 214.903 480 480 480s480-214.903 480-480z" />
<glyph unicode="&#xe99b;" d="M992 480c0-265.097-214.903-480-480-480s-480 214.903-480 480c0 265.097 214.903 480 480 480s480-214.903 480-480z" />
<glyph unicode="&#xe99c;" d="M976 480c0-256.26-207.74-464-464-464s-464 207.74-464 464c0 256.26 207.74 464 464 464s464-207.74 464-464z" />
<glyph unicode="&#xe99d;" d="M510.304 564.896l-350.304-369.376 351.872 572.48 352.128-576-353.696 372.896zM561.12 418.176h-109.504l56.32 61.952 53.184-62.496v0.544zM349.92 316.512v0.768l62.112 63.584v0.288l189.44 0.8 63.936-65.44h-315.456z" />
<glyph unicode="&#xe99e;" d="M510.304 564.896l-350.304-369.376 351.872 572.48 352.128-576-353.696 372.896zM561.12 418.176h-109.504l56.32 61.952 53.184-62.496v0.544zM349.92 316.512v0.768l62.112 63.584v0.288l189.44 0.8 63.936-65.44h-315.456z" />
<glyph unicode="&#xe99f;" d="M992 480c0-265.097-214.903-480-480-480s-480 214.903-480 480c0 265.097 214.903 480 480 480s480-214.903 480-480z" />
<glyph unicode="&#xe9a0;" d="M992 480c0-265.097-214.903-480-480-480s-480 214.903-480 480c0 265.097 214.903 480 480 480s480-214.903 480-480z" />
<glyph unicode="&#xe9a1;" d="M992 480c0-265.097-214.903-480-480-480s-480 214.903-480 480c0 265.097 214.903 480 480 480s480-214.903 480-480z" />
<glyph unicode="&#xe9a2;" d="M976 480c0-256.26-207.74-464-464-464s-464 207.74-464 464c0 256.26 207.74 464 464 464s464-207.74 464-464z" />
<glyph unicode="&#xe9a3;" d="M376.32 540.736l137.024 241.216c0.256 0.448 0.768 0.736 2.56 0l130.368-236.832c-7.033-5.771-11.484-14.464-11.484-24.196 0-10.091 4.785-19.064 12.21-24.773l0.074-0.054-120.416-217.216c-4.083 2.006-8.886 3.179-13.964 3.179-4.919 0-9.581-1.101-13.753-3.070l0.196 0.083-123.936 220.768c5.104 5.519 8.235 12.929 8.235 21.070 0 7.56-2.7 14.489-7.188 19.876l0.041-0.050zM363.2 491.648l124.416-221.6c-2.582-3.207-4.565-7.016-5.709-11.173l-0.051-0.219c-100.448 24.064-162.848 38.944-187.264 44.672-9.552 13.262-18.545 28.346-26.212 44.192l-0.796 1.824 79.744 140.352c1.237-0.166 2.667-0.26 4.12-0.26 4.226 0 8.266 0.8 11.975 2.257l-0.222-0.077zM345.952 551.904l-98.784 176c67.328 35.744 150.88 54.496 250.72 56.096l-133.184-234.432c-3.877 1.781-8.411 2.819-13.189 2.819-1.966 0-3.891-0.176-5.76-0.513l0.196 0.029zM332.512 546.272c-7.896-5.746-12.97-14.957-12.97-25.353 0-10.86 5.538-20.428 13.943-26.032l0.114-0.072-73.28-128.96c-11.553 27.778-19.226 59.959-21.394 93.638l-0.046 0.89-14.816 236.224c-0.033 0.515-0.052 1.116-0.052 1.722 0 8.962 4.144 16.957 10.621 22.171l0.055 0.043 97.856-174.272zM543.712 258.336c-1.15 4.355-3.080 8.155-5.651 11.427l0.051-0.067 122.176 220.384c1.927-0.405 4.141-0.637 6.409-0.637 3.376 0 6.632 0.513 9.694 1.467l-0.231-0.062 79.168-143.808c-6.72-13.824-14.464-27.136-23.168-39.84l-188.48-48.864zM520 219.936c11.849 2.748 21.031 11.844 23.859 23.43l0.045 0.218 174.592 45.28c-21.139-26.137-45.815-48.328-73.534-66.208l-1.218-0.736-115.936-74.048c-2.245-1.463-4.839-2.664-7.601-3.468l-0.207-0.052v75.552zM505.472 219.936v-75.936c-3.516 0.811-6.617 2.148-9.395 3.942l0.115-0.070-115.936 74.048c-27.684 17.811-51.376 38.817-71.469 62.927l-0.403 0.497c31.68-7.52 89.376-21.28 173.088-41.312 2.56-11.936 11.968-21.376 24-24.128zM677.312 550.624c-3.149 1.124-6.781 1.773-10.564 1.773-2.655 0-5.236-0.32-7.705-0.923l0.222 0.046-127.904 232.384c97.024-2.144 178.56-20.672 244.512-55.52l-98.56-177.76zM689.568 542.912l98.88 178.304c7.052-5.245 11.57-13.553 11.57-22.917 0-0.595-0.018-1.186-0.054-1.772l0.004 0.080-14.816-236.256c-2.28-35.422-10.3-68.373-23.146-98.789l0.746 1.989-74.048 134.496c6.14 5.709 9.969 13.832 9.969 22.849 0 8.595-3.479 16.378-9.106 22.016l0.001-0.001zM512 632.512c-9.42-0.155-17.031-7.688-17.311-17.062l-0.001-0.026v-62.528l-92.352-56.896 9.888-21.344 82.464 27.008v-62.528l-23.104-17.056v-17.056l40.416 11.392 40.416-11.36v17.056l-23.104 17.056v62.528l81.056-28.48 11.296 22.784-92.352 56.896v62.528c-0.298 9.376-7.884 16.884-17.264 17.056h-0.016z" />
<glyph unicode="&#xe9a4;" d="M376.32 540.736l137.024 241.216c0.256 0.448 0.768 0.736 2.56 0l130.368-236.832c-7.033-5.771-11.484-14.464-11.484-24.196 0-10.091 4.785-19.064 12.21-24.773l0.074-0.054-120.416-217.216c-4.083 2.006-8.886 3.179-13.964 3.179-4.919 0-9.581-1.101-13.753-3.070l0.196 0.083-123.936 220.768c5.104 5.519 8.235 12.929 8.235 21.070 0 7.56-2.7 14.489-7.188 19.876l0.041-0.050zM363.2 491.648l124.416-221.6c-2.582-3.207-4.565-7.016-5.709-11.173l-0.051-0.219c-100.448 24.064-162.848 38.944-187.264 44.672-9.552 13.262-18.545 28.346-26.212 44.192l-0.796 1.824 79.744 140.352c1.237-0.166 2.667-0.26 4.12-0.26 4.226 0 8.266 0.8 11.975 2.257l-0.222-0.077zM345.952 551.904l-98.784 176c67.328 35.744 150.88 54.496 250.72 56.096l-133.184-234.432c-3.877 1.781-8.411 2.819-13.189 2.819-1.966 0-3.891-0.176-5.76-0.513l0.196 0.029zM332.512 546.272c-7.896-5.746-12.97-14.957-12.97-25.353 0-10.86 5.538-20.428 13.943-26.032l0.114-0.072-73.28-128.96c-11.553 27.778-19.226 59.959-21.394 93.638l-0.046 0.89-14.816 236.224c-0.033 0.515-0.052 1.116-0.052 1.722 0 8.962 4.144 16.957 10.621 22.171l0.055 0.043 97.856-174.272zM543.712 258.336c-1.15 4.355-3.080 8.155-5.651 11.427l0.051-0.067 122.176 220.384c1.927-0.405 4.141-0.637 6.409-0.637 3.376 0 6.632 0.513 9.694 1.467l-0.231-0.062 79.168-143.808c-6.72-13.824-14.464-27.136-23.168-39.84l-188.48-48.864zM520 219.936c11.849 2.748 21.031 11.844 23.859 23.43l0.045 0.218 174.592 45.28c-21.139-26.137-45.815-48.328-73.534-66.208l-1.218-0.736-115.936-74.048c-2.245-1.463-4.839-2.664-7.601-3.468l-0.207-0.052v75.552zM505.472 219.936v-75.936c-3.516 0.811-6.617 2.148-9.395 3.942l0.115-0.070-115.936 74.048c-27.684 17.811-51.376 38.817-71.469 62.927l-0.403 0.497c31.68-7.52 89.376-21.28 173.088-41.312 2.56-11.936 11.968-21.376 24-24.128zM677.312 550.624c-3.149 1.124-6.781 1.773-10.564 1.773-2.655 0-5.236-0.32-7.705-0.923l0.222 0.046-127.904 232.384c97.024-2.144 178.56-20.672 244.512-55.52l-98.56-177.76zM689.568 542.912l98.88 178.304c7.052-5.245 11.57-13.553 11.57-22.917 0-0.595-0.018-1.186-0.054-1.772l0.004 0.080-14.816-236.256c-2.28-35.422-10.3-68.373-23.146-98.789l0.746 1.989-74.048 134.496c6.14 5.709 9.969 13.832 9.969 22.849 0 8.595-3.479 16.378-9.106 22.016l0.001-0.001zM512 632.512c-9.42-0.155-17.031-7.688-17.311-17.062l-0.001-0.026v-62.528l-92.352-56.896 9.888-21.344 82.464 27.008v-62.528l-23.104-17.056v-17.056l40.416 11.392 40.416-11.36v17.056l-23.104 17.056v62.528l81.056-28.48 11.296 22.784-92.352 56.896v62.528c-0.298 9.376-7.884 16.884-17.264 17.056h-0.016z" />
<glyph unicode="&#xe9a5;" d="M992 480c0-265.097-214.903-480-480-480s-480 214.903-480 480c0 265.097 214.903 480 480 480s480-214.903 480-480z" />
<glyph unicode="&#xe9a6;" d="M992 480c0-265.097-214.903-480-480-480s-480 214.903-480 480c0 265.097 214.903 480 480 480s480-214.903 480-480z" />
<glyph unicode="&#xe9a7;" d="M992 480c0-265.097-214.903-480-480-480s-480 214.903-480 480c0 265.097 214.903 480 480 480s480-214.903 480-480z" />
<glyph unicode="&#xe9a8;" d="M976 480c0-256.26-207.74-464-464-464s-464 207.74-464 464c0 256.26 207.74 464 464 464s464-207.74 464-464z" />
<glyph unicode="&#xe9a9;" d="M610.4 329.088c-1.636 0.078-3.133 0.618-4.379 1.49l0.027-0.018c-1.174 0.741-2.139 1.706-2.858 2.843l-0.022 0.037h-0.288l-70.976-124.64c72.128 15.84 144 32 216.096 47.872-1.51 1.854-3.027 3.93-4.434 6.084l-0.174 0.284c-2.016 2.88-3.744 6.336-5.76 10.080-1.385 2.444-3.116 5.856-4.736 9.331l-0.448 1.069v0.288c0 0.288-0.32 0.576-0.32 0.576-2.551 5.119-5.749 12.438-8.694 19.886l-0.81 2.322c-0.864 2.016-1.44 3.744-2.304 5.472-2.6 5.721-6.802 16.605-10.756 27.607l-1.66 5.289c-12.128-2.304-22.208-4.32-29.12-5.76-0.32 0-0.608 0-0.896-0.288-10.656-2.304-20.768-4.32-30.56-6.080-5.504-1.12-10.688-1.696-15.584-2.56-1.152-0.32-2.592-0.32-4.32-0.608 0 0-3.488-0.576-8.096-0.864-0.913-0.074-1.977-0.116-3.050-0.116-2.086 0-4.134 0.158-6.134 0.464l0.224-0.028zM676.736 439.328c-1.296 4.36-2.597 10.002-3.601 15.747l-0.143 0.989-54.24-95.232 0.32 0.32c2.272 0.832 4.864 1.696 8.064 2.56 7.488 2.336 16.704 4.64 27.968 7.52s24.544 6.080 40.096 10.080c-3.168 9.536-6.624 19.328-9.792 29.44-2.479 6.668-5.437 16.2-8.027 25.882l-0.613 2.694zM760.416 608.096h-1.152l-70.080-123.2c0.256 0 0.832-0.288 1.696-0.288 0.32 0 0.32 0 0.576-0.288 0.32 0 0.32 0 0.576-0.288 0.32 0 0.32-0.288 0.576-0.288 0.32 0 0.32 0 0.576-0.288 0.884-0.478 1.643-1.053 2.302-1.726l0.002-0.002c1.152-1.152 2.048-2.304 2.336-2.592 0.288-0.32 0.288-0.576 0.576-0.864 0.576-0.818 1.15-1.76 1.661-2.74l0.067-0.14c1.44-2.592 2.304-4.032 2.304-4.032 3.456-6.656 6.912-14.432 10.368-23.68 3.488-9.216 7.232-19.040 10.688-29.44 0.864-2.304 1.44-4.32 2.304-6.624 2.016-6.080 4.608-13.568 7.52-22.208 12.096 2.304 23.648 4.608 34.88 6.624 11.264 2.016 21.376 3.456 30.592 4.32 9.248 0.896 17.024 1.472 23.68 1.184 3.744 0 6.624-0.32 9.216-0.896 0.576 0 1.44-0.288 2.016-0.288-5.472 15.296-11.232 32.32-17.888 50.496l-55.36 157.248zM826.496 374.688c-5.818-2.283-13.893-4.939-22.109-7.258l-2.147-0.518c-1.728-0.576-3.456-0.864-4.896-1.472-1.44-0.288-2.88-0.864-4.32-1.152-2.753-0.827-6.831-1.823-10.962-2.678l-1.166-0.202c-1.438-0.451-3.758-1.047-6.104-1.575l-0.808-0.153h-0.32c-6.912-1.728-16.128-3.744-26.816-6.080 2.304-8.064 5.216-16.992 8.64-27.104 3.2-10.080 6.4-19.904 8.96-29.12 0.864-2.88 1.44-5.504 2.304-8.384 1.472-4.32 2.624-8.64 3.488-13.856 0.288-0.864 0.288-1.728 0.576-2.56 1.152-4.64 1.44-8.096 1.152-10.688 0 0 12.096 2.304 18.176 3.744 22.896 29.258 41.591 63.21 54.358 99.936l0.746 2.464c-1.728 5.216-3.456 10.112-5.184 15.328-2.624-3.488-6.944-6.080-13.568-8.672zM447.072 821.888h1.152c1.152 0 2.624-0.576 4.352-1.728 0.864-0.576 2.016-1.152 2.88-2.016 1.282-0.923 2.41-1.868 3.464-2.888l-0.008 0.008c5.184-4.608 10.976-10.112 17.6-16.736 6.336-6.336 12.992-13.28 19.904-20.8 6.624-7.168 12.704-13.824 18.176-19.296 2.592 2.592 5.184 5.472 7.808 8.64 3.168 3.488 6.336 6.944 9.504 10.688 3.2 3.456 6.336 7.2 9.824 10.4 3.168 3.456 6.336 6.624 9.504 9.792l4.608 4.608c1.76 1.728 3.488 3.2 4.928 4.64 2.88 2.56 5.472 4.896 8.064 6.912 5.504 4.608 9.536 6.624 12.704 6.624 1.152 0 2.304-0.288 3.456-0.576l-3.168 3.776-8.384 1.728c-0.288 0-0.576 0-0.864 0.288-2.56 0.576-5.184 0.864-7.776 1.152h-0.576c-2.592 0.288-5.472 0.864-8.064 1.152h-0.32c-14.4 1.728-29.12 2.88-44.128 2.88h-8.096c-2.56 0-4.896-0.32-7.2-0.32h-0.864c-2.592 0-4.896-0.256-7.488-0.544h-0.32c-13.248-0.864-26.24-2.592-38.944-4.896-1.152-1.152-2.016-2.336-3.168-3.776 0.576 0 0.864 0.32 1.44 0.32zM249.152 657.728c1.44 1.152 3.2 2.88 6.080 4.032 3.12 1.469 6.756 2.405 10.59 2.589l0.066 0.003c4.896 0.32 8.64-1.152 10.688-1.728 45.856 51.648 91.744 103.040 137.6 154.656l-11.232-3.456c-25.696-8.64-59.744-23.072-95.232-48.48-31.237-22.853-57.915-49.532-80.053-79.745l-0.715-1.023c-2.304-3.488-4.896-6.656-7.232-10.112 9.824-5.472 19.648-11.264 29.44-16.736zM241.664 623.392c-2.015 3.666-3.2 8.034-3.2 12.679 0 0.009 0 0.017 0 0.026v-0.001 1.984s0.32 1.44 0.32 2.016l-29.76 16.736c-27.974-46.798-45.45-102.768-47.85-162.619l-0.022-0.677v-24.256c0.864-27.104 4.608-53.376 11.264-78.464 25.664 74.432 51.648 148.576 77.312 223.040-3.323 2.546-6.032 5.715-7.988 9.35l-0.076 0.154zM591.936 803.712c-0.723-2.197-1.7-4.105-2.925-5.826l0.045 0.066c-2.256-4.125-4.365-7.523-6.632-10.804l0.264 0.404c-1.44-2.016-2.88-4.32-4.32-6.624-4.385-6.407-8.276-11.671-12.328-16.801l0.488 0.641c-2.016-2.304-3.744-4.896-5.76-7.488-0.32-0.32-0.576-0.864-0.864-1.152-3.744-4.64-7.808-9.536-12.128-14.432-3.2-3.744-6.080-7.232-9.536-10.976 4.352-4.896 9.248-10.080 14.144-15.872 1.728-1.728 3.456-3.744 4.928-5.76 3.456-3.744 6.624-7.488 9.792-11.264l9.248-10.944c5.76-7.232 10.656-13.568 14.72-19.328 3.456-5.216 5.184-8.96 5.76-11.84v-1.152c0-2.88-1.44-5.76-4.032-8.384h137.92c0.937 2.431 2.1 4.533 3.508 6.443l-0.052-0.075-141.12 158.4v-0.576c0.007-0.186 0.012-0.405 0.012-0.624 0-2.17-0.415-4.243-1.171-6.144l0.039 0.112zM674.72 791.040c-0.576 0.288-0.864 0.576-1.44 0.576-3.015 1.696-6.903 3.623-10.883 5.382l-0.957 0.378c-0.79 0.22-1.469 0.619-2.017 1.153l0.001-0.001c-1.033 0.621-4.822 2.36-8.639 4.047l-2.881 1.137c-0.864 0.32-1.44 0.576-2.304 0.864-3.060 1.411-7.261 3.079-11.543 4.575l-1.161 0.353c-0.576 0.288-1.152 0.288-1.728 0.576-4.32 1.728-8.96 3.168-13.568 4.608 44.736-50.208 89.44-100.704 134.464-150.912 0.576 0 1.44 0.32 2.016 0.32h6.048c1.44-0.32 4.032-0.608 7.232-1.76 0.288 0 0.576-0.288 0.864-0.576s0.864-0.288 1.152-0.576c2.301-1.189 4.284-2.529 6.093-4.069l-0.045 0.037c0.288 0 0.288-0.288 0.576-0.288 0.864-0.576 1.44-1.44 2.016-2.016 9.536 5.472 19.040 10.688 28.288 16.16-30.671 46.435-70.524 84.346-117.22 111.894l-1.66 0.906h-0.288c-4.032 2.592-8.384 4.928-12.416 7.232zM566.528 650.24c-1.44 1.152-2.592 2.304-4.032 3.456l-8.96 8.064-4.608 4.64c-5.061 4.924-9.866 9.993-14.462 15.25l-0.258 0.302c-3.456 3.776-6.624 7.52-9.792 10.976-3.2 3.744-6.656 7.232-9.824 10.688-10.656-10.976-19.616-20.48-27.104-28.576-1.728-1.728-3.488-3.744-5.216-5.472l-0.576-0.576c-3.456-3.456-6.336-6.656-9.216-9.536l-4.032-4.032c-3.367-3.286-6.945-6.408-10.692-9.323l-0.284-0.213h113.952c-0.288 0.32-0.864 0.576-1.152 0.864-1.152 1.472-2.56 2.336-3.744 3.488zM293.024 646.176h142.496c-0.576 0.576-1.152 1.472-1.728 2.048s-0.864 1.44-1.184 2.016c-0.576 1.44-1.152 2.88-1.152 4.32 0 0.864 0.32 2.016 0.576 3.456 0 0.32 0.32 0.576 0.32 0.864 0.256 0.576 0.576 1.44 1.152 2.304 0.864 1.728 2.016 3.776 3.456 5.76 0.288 0.32 0.288 0.608 0.576 0.608 9.318 13.032 18.494 24.401 28.269 35.218l-0.301-0.338c1.947 2.314 3.828 4.388 5.783 6.391l-0.023-0.023c2.048 2.016 3.776 4.32 5.792 6.336 4.32 4.928 8.64 9.824 12.416 14.432 0.288 0.32 0.576 0.576 0.576 0.864-8.963 10.329-19.057 22.452-28.924 34.764l-1.924 2.484c-2.88 3.776-5.472 7.52-8.064 10.976-3.792 5.268-7.709 11.392-11.303 17.724l-0.537 1.028-1.728 3.424c-0.576 1.152-0.864 2.304-1.44 3.2-0.608 1.984-1.152 3.712-1.152 5.152l-143.136-160.384c0.32-0.864 0.896-1.76 1.184-2.624zM524.992 129.44c95.799 3.586 181.235 45.17 242.198 110.025l0.17 0.183c-80.8-17.888-161.6-35.776-242.368-53.376v-56.832zM859.104 428.352c0.288 1.152 0.288 2.016 0.576 3.2 0.288 2.88 0.864 5.44 1.152 8.32v0.32l0.864 8.96c0 0.832 0.288 1.696 0.288 2.56 0 1.728 0.288 3.2 0.288 4.928 0.576 8.96 0.864 17.28 0.864 25.088-0.279 55.167-13.242 107.24-36.117 153.541l0.917-2.053-0.864 1.728c-1.152 2.592-2.592 4.896-3.744 7.488l-1.728 3.456c-1.44 2.624-2.88 5.504-4.352 8.096-10.656-6.080-21.056-11.84-31.712-17.92 0-0.832 0-1.696-0.32-2.56-0.256-1.728-0.576-3.2-0.864-4.64-0.288-0.864-0.576-1.44-0.864-2.304-0.902-2.313-1.967-4.306-3.234-6.149l0.066 0.101c-0.576-0.576-0.864-1.152-1.44-1.728 25.12-72.416 50.208-144.544 75.296-216.96 1.472 6.048 2.624 12.384 3.776 18.464 0 0.576 0.288 1.152 0.288 2.016 0.279 1.456 0.584 3.532 0.822 5.627l0.042 0.453z" />
</font>
</defs>
</svg>
